<svg width="115" height="92" viewBox="0 0 115 92" fill="none" xmlns="http://www.w3.org/2000/svg">
<path d="M93.0175 67.6878C88.4602 72.3328 82.0855 74.9594 75.1803 74.9686C68.2706 74.9824 61.8912 72.3742 57.3339 67.7431C55.106 65.4852 53.4731 62.8955 52.4583 60.126C51.4666 57.4072 51.0883 54.4996 51.342 51.6195C51.5865 48.8086 52.4168 46.076 53.7868 43.6061C55.1198 41.1915 56.951 39.0119 59.2113 37.1686C63.6394 33.5605 69.2761 31.6113 75.1803 31.6021C81.0846 31.5929 86.7166 33.5329 91.1494 37.1225C93.405 38.9612 95.2362 41.1316 96.5647 43.5416C97.9346 46.0115 98.7695 48.7395 99.014 51.5504C99.2677 54.435 98.8849 57.3381 97.8931 60.0615C96.8783 62.8263 95.2409 65.4207 93.0175 67.6878Z" fill="white"/>
<path d="M60.4475 51.9145C60.6551 48.1589 62.5002 44.8457 65.277 42.5002C68.0031 40.1916 71.6747 38.7861 75.6739 38.7861C79.6777 38.7907 83.3448 40.1962 86.0709 42.5002C88.8477 44.8503 90.6928 48.1589 90.905 51.9145C91.1171 55.7761 89.5627 59.3657 86.8366 62.0246C84.0598 64.7295 80.1021 66.4299 75.6739 66.4299C71.2458 66.4299 67.2835 64.7295 64.5067 62.0246C61.7852 59.3657 60.2353 55.7761 60.4475 51.9145Z" fill="#005385"/>
<path d="M36.1894 59.5177C36.2171 60.9831 36.6876 63.8401 37.3887 66.075C38.8694 70.7983 41.3787 75.1713 44.8751 79.0237C48.4637 82.982 52.8735 86.1616 57.9751 88.4149C63.3396 90.7881 69.147 92 75.1757 91.9862C81.2045 91.9769 87.0118 90.7466 92.3718 88.355C97.4688 86.074 101.878 82.8852 105.463 78.9177C108.954 75.0469 111.459 70.6693 112.94 65.946C113.678 63.5913 114.153 61.1628 114.347 58.7067C114.531 56.3105 114.453 53.8959 114.116 51.5135C113.452 46.841 111.833 42.4587 109.342 38.4635C107.059 34.7955 104.125 31.579 100.633 28.8695L100.638 28.8649L65.4061 1.84321C65.3784 1.82016 65.3461 1.79252 65.3184 1.76948C62.9983 -2.05636e-05 59.1144 0.00458777 56.5728 1.7833C53.9989 3.58045 53.7083 6.55265 55.9916 8.42813L55.9824 8.43274L70.6784 20.3768L25.8755 20.4229H25.8155C22.1162 20.4275 18.5552 22.856 17.8494 25.9203C17.1299 29.0446 19.6438 31.6343 23.4953 31.6528L23.4907 31.6666L46.1989 31.6205L5.6766 62.6927C5.62586 62.7342 5.57051 62.771 5.52438 62.8079C1.70509 65.7294 0.468891 70.5955 2.87209 73.6737C5.31681 76.8026 10.5107 76.8072 14.3761 73.6875L36.4892 55.6101C36.4892 55.6101 36.1664 58.0524 36.1894 59.5177ZM93.0175 67.6878C88.4602 72.3328 82.0855 74.9594 75.1803 74.9686C68.2706 74.9824 61.8912 72.3742 57.3339 67.7431C55.106 65.4852 53.4731 62.8954 52.4583 60.126C51.4666 57.4072 51.0883 54.4996 51.342 51.6195C51.5865 48.8086 52.4168 46.076 53.7868 43.6061C55.1198 41.1915 56.9511 39.0118 59.2113 37.1686C63.6394 33.5605 69.2761 31.6113 75.1803 31.6021C81.0846 31.5929 86.7166 33.5329 91.1494 37.1225C93.405 38.9612 95.2362 41.1316 96.5647 43.5416C97.9346 46.0115 98.7695 48.7395 99.014 51.5504C99.2677 54.435 98.8848 57.3381 97.8931 60.0615C96.8783 62.8263 95.2408 65.4207 93.0175 67.6878Z" fill="#FF7021"/>
</svg>
