<svg width="77" height="104" viewBox="0 0 77 104" fill="none" xmlns="http://www.w3.org/2000/svg">
<path d="M1.31779 103.03H75.6822C76.3868 103.03 77 102.538 77 101.834V14.1567C76.9834 13.4363 76.4026 12.8572 75.6822 12.8422H66.1519V10.2831C66.1519 9.57847 65.4989 9.01347 64.7943 9.01347H58.2818V1.27624C58.2818 0.571651 57.7101 0 57.0055 0C56.3009 0 55.7293 0.571651 55.7293 1.27624V9.01347H49.3954C48.6825 9.00682 48.0951 9.57016 48.0718 10.2831V12.8422H28.9282V10.2831C28.9049 9.57016 28.3175 9.00682 27.6046 9.01347H21.2707V1.27624C21.2707 0.571651 20.6991 0 19.9945 0C19.2899 0 18.7182 0.571651 18.7182 1.27624V9.01347H12.2057C11.5011 9.01347 10.8481 9.57847 10.8481 10.2831V12.8422H1.31779C0.597408 12.8572 0.0166177 13.4363 0 14.1567V101.834C0 102.538 0.613195 103.03 1.31779 103.03ZM50.6243 11.566H63.5994V16.2455H50.6243V11.566ZM13.4006 11.566H26.3757V16.2455H13.4006V11.566ZM2.55249 15.3947H10.8481V17.5467C10.8481 18.2513 11.5011 18.798 12.2057 18.798H27.6046C28.3133 18.813 28.9032 18.2554 28.9282 17.5467V15.3947H48.0718V17.5467C48.0967 18.2554 48.6867 18.813 49.3954 18.798H64.7943C65.4989 18.798 66.1519 18.2513 66.1519 17.5467V15.3947H74.4475V100.478H2.55249V15.3947Z" fill="#393A3E"/>
<path d="M64.4551 81.1211H12.5446C11.84 81.1211 11.2683 81.6927 11.2683 82.3973C11.2683 83.1019 11.84 83.6736 12.5446 83.6736H64.4551C65.1597 83.6736 65.7313 83.1019 65.7313 82.3973C65.7313 81.6927 65.1597 81.1211 64.4551 81.1211Z" fill="#393A3E"/>
<path d="M64.4551 90.4802H12.5446C11.84 90.4802 11.2683 91.0519 11.2683 91.7565C11.2683 92.4611 11.84 93.0327 12.5446 93.0327H64.4551C65.1597 93.0327 65.7313 92.4611 65.7313 91.7565C65.7313 91.0519 65.1597 90.4802 64.4551 90.4802Z" fill="#393A3E"/>
<path d="M65.5139 28.5824C65.5139 27.8778 64.9423 27.3062 64.2377 27.3062H12.7626C12.058 27.3062 11.4863 27.8778 11.4863 28.5824V72.1874C11.4863 72.892 12.058 73.4636 12.7626 73.4636H64.2377C64.9423 73.4636 65.5139 72.892 65.5139 72.1874V28.5824ZM14.0388 29.8586H62.9615V70.9111H14.0388V29.8586Z" fill="#393A3E"/>
<path d="M45.3995 43.7812L43.1794 43.5452V38.9562C43.1944 38.5474 43.0074 38.1577 42.6792 37.9134C42.341 37.6883 41.914 37.6451 41.5376 37.7971L27.3327 42.834H20.1156C18.7588 42.834 17.6545 43.8443 17.6545 45.2012V52.3834C17.6545 53.3405 18.2927 54.1714 18.9308 54.5777V61.6012C18.9308 62.3066 19.5789 62.8284 20.2835 62.8284H24.3997C24.9614 62.8384 25.4607 62.4753 25.6236 61.9377L27.6867 54.9566L41.5558 59.8273C41.6913 59.8763 41.8342 59.9012 41.9779 59.9021C42.2305 59.9029 42.4765 59.8206 42.6784 59.6686C43.0066 59.4251 43.1935 59.0363 43.1794 58.6283V53.7236L45.3995 53.4868C47.2616 53.2915 48.684 51.7344 48.7098 49.8616V47.4072C48.6849 45.5343 47.2624 43.9764 45.3995 43.7812ZM20.207 45.3864H26.3755V52.1931H20.207V45.3864ZM23.4458 60.2759H21.4833V54.7456H25.0627L23.4458 60.2759ZM40.6269 56.8286L28.928 52.6634V44.9203L40.6269 40.7551V56.8286ZM46.1573 49.8616C46.1299 50.4316 45.6887 50.8944 45.1212 50.9492L43.1794 51.1553V46.1126L45.1212 46.3187C45.6887 46.3744 46.1299 46.8372 46.1573 47.4072V49.8616Z" fill="#393A3E"/>
<path d="M58.2817 47.5134H51.2623C50.5577 47.5134 49.9861 48.0851 49.9861 48.7897C49.9861 49.4943 50.5577 50.0659 51.2623 50.0659H58.2817C58.9863 50.0659 59.5579 49.4943 59.5579 48.7897C59.5579 48.0851 58.9863 47.5134 58.2817 47.5134Z" fill="#393A3E"/>
<path d="M50.7306 45.8219C50.8378 45.8219 50.945 45.8086 51.048 45.7812L56.0175 44.5074C56.7005 44.3321 57.1118 43.6367 56.9365 42.9545C56.7612 42.2715 56.0657 41.8602 55.3836 42.0347L50.4149 43.3093C49.7909 43.468 49.3829 44.0662 49.4635 44.7052C49.5441 45.3433 50.0867 45.8227 50.7306 45.8219Z" fill="#393A3E"/>
<path d="M56.0167 53.2466L51.048 51.9729C50.3659 51.8009 49.6737 52.213 49.4992 52.8935C49.3248 53.574 49.7336 54.2678 50.4141 54.4456L55.3828 55.7194C56.0658 55.8947 56.7612 55.4834 56.9357 54.8004C57.111 54.1174 56.6997 53.422 56.0167 53.2466Z" fill="#393A3E"/>
</svg>
