<svg width="23" height="21" viewBox="0 0 23 21" fill="none" xmlns="http://www.w3.org/2000/svg">
<path d="M7.74958 19.5614C8.21555 19.5614 8.59328 19.1837 8.59328 18.7177C8.59328 18.2518 8.21555 17.874 7.74958 17.874C7.28362 17.874 6.90588 18.2518 6.90588 18.7177C6.90588 19.1837 7.28362 19.5614 7.74958 19.5614Z" stroke="#4D7775" stroke-width="1.5" stroke-linecap="round" stroke-linejoin="round"/>
<path d="M19.5615 19.5614C20.0274 19.5614 20.4052 19.1837 20.4052 18.7177C20.4052 18.2518 20.0274 17.874 19.5615 17.874C19.0955 17.874 18.7178 18.2518 18.7178 18.7177C18.7178 19.1837 19.0955 19.5614 19.5615 19.5614Z" stroke="#4D7775" stroke-width="1.5" stroke-linecap="round" stroke-linejoin="round"/>
<path d="M1 1H4.3748L6.9059 15.3429H20.4051" stroke="#4D7775" stroke-width="1.5" stroke-linecap="round" stroke-linejoin="round"/>
<path d="M6.90591 11.968H20.0592C20.1568 11.9681 20.2513 11.9343 20.3268 11.8725C20.4023 11.8107 20.454 11.7246 20.4731 11.6289L21.9918 4.03564C22.0041 3.97442 22.0026 3.91123 21.9874 3.85065C21.9723 3.79006 21.9439 3.7336 21.9043 3.68532C21.8647 3.63704 21.8149 3.59815 21.7584 3.57147C21.702 3.54478 21.6403 3.53096 21.5779 3.53101H5.21851" stroke="#4D7775" stroke-width="1.5" stroke-linecap="round" stroke-linejoin="round"/>
</svg>
