<svg width="61" height="72" viewBox="0 0 61 72" fill="none" xmlns="http://www.w3.org/2000/svg">
<path d="M54.5141 71.5946H8.48899C7.67522 71.5946 6.89478 71.2713 6.31935 70.6959C5.74392 70.1205 5.42065 69.34 5.42065 68.5263V3.06834C5.42065 2.25457 5.74392 1.47412 6.31935 0.898696C6.89478 0.323271 7.67522 0 8.48899 0H54.5141C56.1411 0.00162461 57.7011 0.648688 58.8516 1.79919C60.0021 2.94969 60.6492 4.50963 60.6508 6.13668V65.4579C60.6492 67.085 60.0021 68.6449 58.8516 69.7954C57.7011 70.9459 56.1411 71.593 54.5141 71.5946V71.5946ZM8.48899 2.04556C8.21774 2.04556 7.95759 2.15332 7.76578 2.34513C7.57397 2.53693 7.46621 2.79708 7.46621 3.06834V68.5263C7.46621 68.7975 7.57397 69.0577 7.76578 69.2495C7.95759 69.4413 8.21774 69.549 8.48899 69.549H54.5141C55.0514 69.549 55.5833 69.4432 56.0797 69.2376C56.5761 69.032 57.0271 68.7307 57.407 68.3508C57.7869 67.9709 58.0882 67.5199 58.2938 67.0235C58.4994 66.5272 58.6052 65.9952 58.6052 65.4579V6.13668C58.6052 5.05165 58.1742 4.01106 57.407 3.24382C56.6397 2.47659 55.5991 2.04556 54.5141 2.04556H8.48899Z" fill="#5A5A5A"/>
<path d="M18.7159 31.2562C18.4446 31.2562 18.1845 31.1484 17.9927 30.9566C17.8009 30.7648 17.6931 30.5046 17.6931 30.2334V1.02278C17.6931 0.751522 17.8009 0.491374 17.9927 0.299565C18.1845 0.107757 18.4446 0 18.7159 0C18.9872 0 19.2473 0.107757 19.4391 0.299565C19.6309 0.491374 19.7387 0.751522 19.7387 1.02278V30.2334C19.7387 30.5046 19.6309 30.7648 19.4391 30.9566C19.2473 31.1484 18.9872 31.2562 18.7159 31.2562Z" fill="#5A5A5A"/>
<path d="M18.7159 51.589C18.4446 51.589 18.1845 51.4813 17.9927 51.2894C17.8009 51.0976 17.6931 50.8375 17.6931 50.5662V47.5286C17.6931 47.2573 17.8009 46.9972 17.9927 46.8054C18.1845 46.6136 18.4446 46.5058 18.7159 46.5058C18.9872 46.5058 19.2473 46.6136 19.4391 46.8054C19.6309 46.9972 19.7387 47.2573 19.7387 47.5286V50.5662C19.7387 50.8375 19.6309 51.0976 19.4391 51.2894C19.2473 51.4813 18.9872 51.589 18.7159 51.589Z" fill="#5A5A5A"/>
<path d="M18.7159 71.5946C18.4446 71.5946 18.1845 71.4868 17.9927 71.295C17.8009 71.1032 17.6931 70.8431 17.6931 70.5718V57.7257C17.6931 57.4544 17.8009 57.1943 17.9927 57.0025C18.1845 56.8107 18.4446 56.7029 18.7159 56.7029C18.9872 56.7029 19.2473 56.8107 19.4391 57.0025C19.6309 57.1943 19.7387 57.4544 19.7387 57.7257V70.5718C19.7387 70.8431 19.6309 71.1032 19.4391 71.295C19.2473 71.4868 18.9872 71.5946 18.7159 71.5946Z" fill="#5A5A5A"/>
<path d="M18.7159 41.3919C18.4446 41.3919 18.1845 41.2841 17.9927 41.0923C17.8009 40.9005 17.6931 40.6404 17.6931 40.3691V37.3928C17.6931 37.1216 17.8009 36.8614 17.9927 36.6696C18.1845 36.4778 18.4446 36.3701 18.7159 36.3701C18.9872 36.3701 19.2473 36.4778 19.4391 36.6696C19.6309 36.8614 19.7387 37.1216 19.7387 37.3928V40.3691C19.7387 40.6404 19.6309 40.9005 19.4391 41.0923C19.2473 41.2841 18.9872 41.3919 18.7159 41.3919Z" fill="#5A5A5A"/>
<path d="M6.44351 16.9209C2.82901 16.9209 0 15.1494 0 12.8881C0 10.6267 2.83106 8.85319 6.44351 8.85319C6.71477 8.85319 6.97492 8.96094 7.16673 9.15275C7.35854 9.34456 7.46629 9.60471 7.46629 9.87597C7.46629 10.1472 7.35854 10.4074 7.16673 10.5992C6.97492 10.791 6.71477 10.8987 6.44351 10.8987C3.75769 10.8987 2.04556 12.077 2.04556 12.8881C2.04556 13.6991 3.75974 14.8753 6.44351 14.8753C9.12729 14.8753 10.8415 13.6981 10.8415 12.8881C10.8415 12.6168 10.9492 12.3566 11.141 12.1648C11.3328 11.973 11.593 11.8653 11.8642 11.8653C12.1355 11.8653 12.3957 11.973 12.5875 12.1648C12.7793 12.3566 12.887 12.6168 12.887 12.8881C12.8911 15.1494 10.059 16.9209 6.44351 16.9209Z" fill="#5A5A5A"/>
<path d="M6.44351 28.377C2.82901 28.377 0 26.6045 0 24.3422C0 22.0798 2.83106 20.3083 6.44351 20.3083C6.71477 20.3083 6.97492 20.4161 7.16673 20.6079C7.35854 20.7997 7.46629 21.0598 7.46629 21.3311C7.46629 21.6024 7.35854 21.8625 7.16673 22.0543C6.97492 22.2461 6.71477 22.3539 6.44351 22.3539C3.75769 22.3539 2.04556 23.5311 2.04556 24.3422C2.04556 25.1532 3.75974 26.3315 6.44351 26.3315C9.12729 26.3315 10.8415 25.1532 10.8415 24.3422C10.8415 24.0709 10.9492 23.8108 11.141 23.6189C11.3328 23.4271 11.593 23.3194 11.8642 23.3194C12.1355 23.3194 12.3957 23.4271 12.5875 23.6189C12.7793 23.8108 12.887 24.0709 12.887 24.3422C12.8911 26.6045 10.059 28.377 6.44351 28.377Z" fill="#5A5A5A"/>
<path d="M6.44351 39.8311C2.82901 39.8311 0 38.0597 0 35.7973C0 33.5349 2.83106 31.7635 6.44351 31.7635C6.71477 31.7635 6.97492 31.8712 7.16673 32.063C7.35854 32.2548 7.46629 32.515 7.46629 32.7862C7.46629 33.0575 7.35854 33.3176 7.16673 33.5095C6.97492 33.7013 6.71477 33.809 6.44351 33.809C3.75769 33.809 2.04556 34.9862 2.04556 35.7973C2.04556 36.6084 3.75974 37.7856 6.44351 37.7856C9.12729 37.7856 10.8415 36.6084 10.8415 35.7973C10.8415 35.526 10.9492 35.2659 11.141 35.0741C11.3328 34.8823 11.593 34.7745 11.8642 34.7745C12.1355 34.7745 12.3957 34.8823 12.5875 35.0741C12.7793 35.2659 12.887 35.526 12.887 35.7973C12.8911 38.0597 10.059 39.8311 6.44351 39.8311Z" fill="#5A5A5A"/>
<path d="M6.44351 51.2863C2.82901 51.2863 0 49.5148 0 47.2524C0 44.9901 2.83106 43.2176 6.44351 43.2176C6.71477 43.2176 6.97492 43.3253 7.16673 43.5171C7.35854 43.7089 7.46629 43.9691 7.46629 44.2404C7.46629 44.5116 7.35854 44.7718 7.16673 44.9636C6.97492 45.1554 6.71477 45.2631 6.44351 45.2631C3.75769 45.2631 2.04556 46.4414 2.04556 47.2524C2.04556 48.0635 3.75974 49.2407 6.44351 49.2407C9.12729 49.2407 10.8415 48.0635 10.8415 47.2524C10.8415 46.9812 10.9492 46.721 11.141 46.5292C11.3328 46.3374 11.593 46.2297 11.8642 46.2297C12.1355 46.2297 12.3957 46.3374 12.5875 46.5292C12.7793 46.721 12.887 46.9812 12.887 47.2524C12.8911 49.5148 10.059 51.2863 6.44351 51.2863Z" fill="#5A5A5A"/>
<path d="M6.44351 62.7414C2.82901 62.7414 0 60.9689 0 58.7065C0 56.4442 2.83106 54.6737 6.44351 54.6737C6.71477 54.6737 6.97492 54.7815 7.16673 54.9733C7.35854 55.1651 7.46629 55.4252 7.46629 55.6965C7.46629 55.9678 7.35854 56.2279 7.16673 56.4197C6.97492 56.6115 6.71477 56.7193 6.44351 56.7193C3.75769 56.7193 2.04556 57.8965 2.04556 58.7065C2.04556 59.5166 3.75974 60.6959 6.44351 60.6959C9.12729 60.6959 10.8415 59.5176 10.8415 58.7065C10.8415 58.4353 10.9492 58.1751 11.141 57.9833C11.3328 57.7915 11.593 57.6838 11.8642 57.6838C12.1355 57.6838 12.3957 57.7915 12.5875 57.9833C12.7793 58.1751 12.887 58.4353 12.887 58.7065C12.8911 60.9689 10.059 62.7414 6.44351 62.7414Z" fill="#5A5A5A"/>
<path d="M50.9928 17.3873H27.3584C27.0871 17.3873 26.8269 17.2795 26.6351 17.0877C26.4433 16.8959 26.3356 16.6357 26.3356 16.3645C26.3356 16.0932 26.4433 15.8331 26.6351 15.6413C26.8269 15.4495 27.0871 15.3417 27.3584 15.3417H50.9928C51.264 15.3417 51.5242 15.4495 51.716 15.6413C51.9078 15.8331 52.0155 16.0932 52.0155 16.3645C52.0155 16.6357 51.9078 16.8959 51.716 17.0877C51.5242 17.2795 51.264 17.3873 50.9928 17.3873Z" fill="#5A5A5A"/>
<path d="M50.9928 24.5467H27.3584C27.0871 24.5467 26.8269 24.439 26.6351 24.2472C26.4433 24.0553 26.3356 23.7952 26.3356 23.5239C26.3356 23.2527 26.4433 22.9925 26.6351 22.8007C26.8269 22.6089 27.0871 22.5012 27.3584 22.5012H50.9928C51.264 22.5012 51.5242 22.6089 51.716 22.8007C51.9078 22.9925 52.0155 23.2527 52.0155 23.5239C52.0155 23.7952 51.9078 24.0553 51.716 24.2472C51.5242 24.439 51.264 24.5467 50.9928 24.5467Z" fill="#5A5A5A"/>
<path d="M50.9928 31.7062H27.3584C27.0871 31.7062 26.8269 31.5984 26.6351 31.4066C26.4433 31.2148 26.3356 30.9547 26.3356 30.6834C26.3356 30.4121 26.4433 30.152 26.6351 29.9602C26.8269 29.7684 27.0871 29.6606 27.3584 29.6606H50.9928C51.264 29.6606 51.5242 29.7684 51.716 29.9602C51.9078 30.152 52.0155 30.4121 52.0155 30.6834C52.0155 30.9547 51.9078 31.2148 51.716 31.4066C51.5242 31.5984 51.264 31.7062 50.9928 31.7062Z" fill="#5A5A5A"/>
</svg>
