<svg width="88" height="102" viewBox="0 0 88 102" fill="none" xmlns="http://www.w3.org/2000/svg">
<path d="M21.4785 75.5165C26.8048 78.5914 30.0824 77.1722 30.0824 72.6658V72.5975C30.0824 68.1593 26.9072 64.6192 23.6635 62.2005L28.341 60.4286C29.2971 60.0588 29.9117 59.6967 29.9117 58.3993C29.9117 56.9654 28.7849 55.4276 27.2487 54.5405L15.6061 47.8188C14.3771 47.1092 13.3529 47.5421 13.3529 48.7711C13.3529 50 14.3771 51.6155 15.6061 52.3253L22.9468 56.5633L18.3035 58.5595C17.484 58.9058 17.1768 59.3428 17.1768 60.06C17.1768 61.289 18.2009 62.9047 19.4301 63.6145L20.2497 64.0877C23.1858 65.783 24.9272 67.8806 24.9272 69.8266V69.8949C24.9272 71.6702 23.5275 71.9887 21.547 70.8452C19.6692 69.761 18.2352 68.3187 16.8696 66.3695C16.46 65.7916 15.9478 65.1885 15.1967 64.755C13.8311 63.9665 12.6704 64.4572 12.6704 65.8227C12.6704 66.5737 13.08 67.5272 13.5581 68.2129C15.5037 71.0085 18.0647 73.5454 21.4785 75.5165Z" fill="black"/>
<path d="M86.7826 24.5793L44.5762 0.211721C44.0875 -0.0705735 43.4852 -0.0705735 42.9966 0.211721L0.789906 24.5793C0.30122 24.8616 0 25.3827 0 25.9473V76.0532C0 76.6176 0.30122 77.139 0.789906 77.4213L42.9966 101.789C43.2408 101.93 43.5135 102.001 43.7865 102.001C44.0592 102.001 44.3319 101.93 44.5764 101.789L86.7828 77.4213C87.2715 77.139 87.5727 76.6178 87.5727 76.0532V25.9473C87.5723 25.3827 87.2713 24.8616 86.7826 24.5793ZM42.2067 97.6849L3.15942 75.1412V28.6834L42.2067 51.2271V97.6849ZM43.7865 48.491L4.73904 25.9473L43.7863 3.40362L82.8335 25.9473L43.7865 48.491ZM84.4133 75.1412H84.4131L45.3661 97.6849V51.2271L84.4133 28.6834V75.1412Z" fill="black"/>
<path d="M58.0987 79.3034L64.7905 75.4397C72.3016 71.1031 77.4913 62.8835 77.4913 56.1578V56.0899C77.4913 49.3643 72.3016 47.2051 64.7905 51.5419L58.0987 55.4056C56.6306 56.2531 55.47 58.0841 55.47 59.5521V78.1925C55.4696 79.6606 56.6306 80.1512 58.0987 79.3034ZM60.7276 58.6331L64.7905 56.2875C69.0926 53.8037 71.9944 55.0984 71.9944 59.3318V59.4001C71.9944 63.6338 69.0926 68.211 64.7905 70.6945L60.7276 73.0401V58.6331Z" fill="black"/>
</svg>
