<svg width="62" height="93" viewBox="0 0 62 93" fill="none" xmlns="http://www.w3.org/2000/svg">
<g clip-path="url(#clip0)">
<path d="M15.5032 93C24.0575 93 31.0001 86.056 31.0001 77.5V62H15.5032C6.94896 62 0.00634766 68.944 0.00634766 77.5C0.00634766 86.056 6.94896 93 15.5032 93Z" fill="#0ACF83"/>
<path d="M0.00634766 46.5C0.00634766 37.944 6.94896 31 15.5032 31H31.0001V62H15.5032C6.94896 62 0.00634766 55.056 0.00634766 46.5Z" fill="#A259FF"/>
<path d="M0.00634766 15.5C0.00634766 6.944 6.94896 0 15.5032 0H31.0001V31H15.5032C6.94896 31 0.00634766 24.056 0.00634766 15.5Z" fill="#F24E1E"/>
<path d="M31 0H46.4969C55.0512 0 61.9938 6.944 61.9938 15.5C61.9938 24.056 55.0512 31 46.4969 31H31V0Z" fill="#FF7262"/>
<path d="M61.9938 46.5C61.9938 55.056 55.0512 62 46.4969 62C37.9426 62 31 55.056 31 46.5C31 37.944 37.9426 31 46.4969 31C55.0512 31 61.9938 37.944 61.9938 46.5Z" fill="#1ABCFE"/>
</g>
<defs>
<clipPath id="clip0">
<rect width="62" height="93" fill="white"/>
</clipPath>
</defs>
</svg>
