<svg width="289" height="277" viewBox="0 0 289 277" fill="none" xmlns="http://www.w3.org/2000/svg">
<path d="M199.903 158.488H48.1537L179.561 74.9377C179.944 74.6947 180.274 74.3787 180.535 74.0078C180.795 73.6369 180.98 73.2184 181.078 72.7761C181.176 72.3339 181.187 71.8766 181.108 71.4303C181.03 70.9841 180.865 70.5576 180.621 70.1753L167.602 49.699C164.633 45.0403 159.937 41.7497 154.545 40.5491C149.152 39.3485 143.504 40.3359 138.839 43.2948L120.347 55.0518L121.812 48.0433C122.39 45.5095 122.461 42.8865 122.021 40.3251C121.582 37.7637 120.641 35.3144 119.252 33.1179C117.863 30.9213 116.054 29.0209 113.928 27.5257C111.802 26.0305 109.402 24.9701 106.866 24.4053C104.329 23.8405 101.706 23.7826 99.1464 24.2347C96.5872 24.6869 94.1426 25.6402 91.953 27.0401C89.7635 28.4399 87.872 30.2586 86.3875 32.3916C84.9029 34.5246 83.8544 36.93 83.3023 39.4695L73.6959 82.617L41.5304 75.4574C36.7336 74.3883 31.7104 75.1482 27.4444 77.5883C23.1784 80.0284 19.9768 83.973 18.4665 88.6497C16.9562 93.3264 17.2458 98.3984 19.2788 102.873C21.3118 107.347 24.9417 110.901 29.4578 112.84L9.64833 125.436C4.98982 128.405 1.6993 133.101 0.498686 138.493C-0.70193 143.885 0.285409 149.533 3.24409 154.199L16.2636 174.675C16.5065 175.058 16.8225 175.388 17.1933 175.649C17.5641 175.909 17.9826 176.094 18.4247 176.192C18.8669 176.291 19.3242 176.301 19.7704 176.223C20.2166 176.145 20.643 175.979 21.0253 175.736L33.144 168.033V255.351C33.1502 260.875 35.3476 266.172 39.254 270.078C43.1605 273.984 48.4569 276.181 53.9813 276.187H182.517C188.041 276.181 193.337 273.984 197.243 270.078C201.15 266.171 203.347 260.875 203.353 255.351V161.938C203.353 161.485 203.264 161.036 203.09 160.617C202.917 160.199 202.663 159.819 202.342 159.498C202.022 159.178 201.642 158.924 201.223 158.751C200.804 158.577 200.356 158.488 199.903 158.488ZM142.54 49.1172C144.765 47.6945 147.351 46.9377 149.991 46.9361C151.019 46.9366 152.044 47.0498 153.048 47.2736C154.836 47.6669 156.529 48.4109 158.027 49.4626C159.526 50.5143 160.802 51.8528 161.78 53.4007L172.949 70.9664L118.622 105.509L99.9752 76.1818L142.54 49.1172ZM90.0359 40.9694C90.7811 37.6497 92.8145 34.7621 95.6888 32.9417C98.5631 31.1212 102.043 30.5172 105.362 31.2624C108.682 32.0076 111.57 34.041 113.39 36.9153C115.211 39.7895 115.815 43.2692 115.069 46.5889L112.237 60.1355L81.385 79.8248L90.0359 40.9694ZM94.1521 79.8835L112.799 109.211L81.3183 129.226L62.6719 99.8987L94.1521 79.8835ZM26.4184 101.596C25.0569 99.4548 24.361 96.9581 24.4185 94.4216C24.4761 91.885 25.2845 89.4225 26.7416 87.3454C28.1987 85.2683 30.239 83.67 32.6046 82.7525C34.9701 81.835 37.5545 81.6397 40.0311 82.1911L67.9045 88.3964L36.9629 107.792L34.4553 107.234C32.8094 106.872 31.2517 106.187 29.8721 105.22C28.4926 104.252 27.3187 103.02 26.4184 101.596ZM20.2354 168.064L9.06712 150.497C7.08801 147.377 6.42747 143.599 7.23039 139.992C8.0333 136.385 10.2341 133.244 13.35 131.258L56.85 103.6L75.4965 132.928L20.2354 168.064ZM87.1253 269.289H53.9813C50.2862 269.284 46.7436 267.815 44.1307 265.202C41.5178 262.589 40.048 259.046 40.0438 255.351V165.387H87.127L87.1253 269.289ZM130.968 269.289H94.0239V165.387H130.968V269.289ZM196.453 255.351C196.449 259.046 194.979 262.588 192.367 265.201C189.754 267.814 186.212 269.284 182.517 269.289H137.867V165.387H196.453V255.351Z" fill="#7C9FA5"/>
<path d="M238.472 127.154L240.122 117.533C240.231 116.899 240.16 116.247 239.917 115.651C239.675 115.055 239.271 114.539 238.75 114.161C238.23 113.783 237.614 113.558 236.972 113.511C236.331 113.464 235.689 113.598 235.119 113.897L226.48 118.439L217.84 113.897C217.27 113.598 216.628 113.463 215.986 113.51C215.344 113.556 214.728 113.781 214.207 114.16C213.686 114.538 213.282 115.054 213.039 115.651C212.797 116.247 212.726 116.899 212.835 117.533L214.485 127.154L207.495 133.966C207.034 134.416 206.708 134.985 206.554 135.61C206.399 136.235 206.423 136.89 206.622 137.503C206.821 138.115 207.187 138.659 207.679 139.074C208.171 139.489 208.77 139.758 209.407 139.85L219.065 141.254L223.384 150.007C223.669 150.584 224.11 151.07 224.657 151.41C225.203 151.75 225.834 151.93 226.478 151.93C227.122 151.93 227.753 151.75 228.299 151.41C228.846 151.07 229.287 150.584 229.571 150.007L233.89 141.254L243.549 139.85C244.186 139.758 244.784 139.489 245.276 139.074C245.768 138.659 246.135 138.115 246.333 137.503C246.532 136.89 246.556 136.235 246.402 135.61C246.247 134.985 245.921 134.416 245.46 133.966L238.472 127.154ZM231.104 134.685C230.551 134.765 230.025 134.979 229.572 135.308C229.12 135.637 228.754 136.07 228.507 136.572L226.478 140.683L224.449 136.572C224.201 136.07 223.835 135.637 223.383 135.308C222.931 134.979 222.405 134.766 221.852 134.685L217.314 134.026L220.597 130.825C220.998 130.435 221.297 129.953 221.47 129.421C221.643 128.889 221.684 128.323 221.59 127.772L220.814 123.252L224.873 125.386C225.368 125.646 225.919 125.782 226.478 125.782C227.037 125.782 227.588 125.646 228.083 125.386L232.141 123.252L231.366 127.772C231.272 128.323 231.312 128.889 231.485 129.421C231.658 129.953 231.957 130.435 232.358 130.825L235.642 134.026L231.104 134.685Z" fill="#7C9FA5"/>
<path d="M278.144 79.6276L268.658 77.3223L265.18 68.2029C264.951 67.6014 264.558 67.076 264.045 66.6862C263.533 66.2964 262.922 66.0578 262.281 65.9972C261.64 65.9367 260.995 66.0567 260.419 66.3437C259.843 66.6306 259.358 67.0731 259.02 67.6211L253.898 75.9299L244.149 76.4203C243.506 76.4526 242.886 76.6642 242.357 77.031C241.828 77.3977 241.412 77.9052 241.157 78.4958C240.901 79.0865 240.816 79.7369 240.911 80.3734C241.006 81.01 241.277 81.6073 241.693 82.0979L248.012 89.5375L245.467 98.9599C245.299 99.5812 245.308 100.237 245.494 100.853C245.679 101.47 246.033 102.022 246.516 102.448C246.999 102.873 247.591 103.155 248.226 103.262C248.861 103.368 249.513 103.295 250.108 103.05L259.134 99.3399L267.313 104.673C267.852 105.025 268.478 105.219 269.122 105.233C269.765 105.247 270.4 105.081 270.953 104.753C271.507 104.425 271.959 103.949 272.256 103.378C272.553 102.808 272.685 102.165 272.637 101.523L271.898 91.7905L279.494 85.6639C279.995 85.2599 280.373 84.7239 280.585 84.1165C280.797 83.509 280.835 82.8543 280.694 82.2263C280.554 81.5984 280.241 81.0222 279.79 80.563C279.339 80.1038 278.769 79.7798 278.144 79.6276ZM266.154 87.561C265.719 87.9121 265.376 88.3637 265.154 88.877C264.932 89.3902 264.838 89.9497 264.88 90.5073L265.225 95.0794L261.384 92.5735C260.916 92.268 260.38 92.0809 259.824 92.0284C259.267 91.976 258.706 92.0596 258.189 92.2722L253.948 94.0153L255.144 89.5887C255.29 89.0488 255.302 88.4816 255.18 87.9359C255.058 87.3902 254.805 86.8823 254.443 86.4561L251.475 82.9614L256.055 82.7314C256.613 82.7035 257.157 82.5402 257.638 82.2556C258.119 81.971 258.524 81.5735 258.818 81.0976L261.224 77.1947L262.858 81.4787C263.057 82.0011 263.381 82.4672 263.8 82.8368C264.22 83.2065 264.723 83.4686 265.266 83.6006L269.722 84.6837L266.154 87.561Z" fill="#7C9FA5"/>
<path d="M227.416 23.5548L224.869 32.9772C224.701 33.5986 224.71 34.2546 224.896 34.8711C225.081 35.4875 225.435 36.0398 225.918 36.4654C226.401 36.8911 226.993 37.1731 227.628 37.2796C228.263 37.3861 228.915 37.3129 229.51 37.0681L238.536 33.3572L246.712 38.6916C247.251 39.0433 247.877 39.2371 248.521 39.2512C249.164 39.2652 249.799 39.099 250.353 38.7712C250.907 38.4435 251.358 37.9672 251.655 37.3964C251.953 36.8256 252.084 36.183 252.036 35.5412L251.297 25.8084L258.895 19.6813C259.395 19.2773 259.773 18.7413 259.985 18.1338C260.198 17.5263 260.236 16.8716 260.095 16.2437C259.955 15.6157 259.642 15.0396 259.191 14.5804C258.74 14.1211 258.17 13.7971 257.545 13.6449L248.059 11.3402L244.581 2.22022C244.352 1.61877 243.959 1.09351 243.446 0.703841C242.934 0.314171 242.323 0.0756397 241.682 0.0152269C241.041 -0.045186 240.396 0.0749296 239.82 0.361989C239.244 0.649048 238.759 1.0916 238.422 1.63958L233.299 9.94785L223.551 10.4376C222.908 10.4699 222.287 10.6814 221.758 11.0481C221.229 11.4148 220.813 11.9222 220.558 12.5129C220.302 13.1036 220.217 13.7541 220.312 14.3907C220.406 15.0272 220.677 15.6246 221.094 16.1152L227.416 23.5548ZM235.459 16.7459C236.017 16.7178 236.561 16.5544 237.042 16.2697C237.523 15.985 237.928 15.5875 238.222 15.1115L240.628 11.2086L242.262 15.4926C242.461 16.0151 242.785 16.4813 243.204 16.8511C243.624 17.2208 244.127 17.483 244.67 17.6151L249.126 18.6976L245.557 21.5755C245.121 21.9265 244.778 22.3781 244.556 22.8914C244.334 23.4046 244.24 23.9642 244.282 24.5218L244.627 29.0945L240.786 26.5885C240.318 26.283 239.782 26.096 239.225 26.0435C238.669 25.991 238.108 26.0747 237.59 26.2873L233.35 28.0303L234.546 23.6037C234.692 23.0638 234.704 22.4965 234.582 21.9506C234.46 21.4048 234.207 20.8969 233.845 20.4706L230.877 16.9753L235.459 16.7459Z" fill="#7C9FA5"/>
<path d="M164.837 127.651C157.049 132.552 153.245 138.49 153.087 138.741C152.597 139.513 152.434 140.449 152.634 141.342C152.833 142.234 153.38 143.011 154.152 143.501C154.925 143.991 155.86 144.154 156.753 143.954C157.646 143.755 158.423 143.208 158.913 142.436C159.43 141.631 171.91 122.766 199.074 129.485C199.959 129.695 200.891 129.548 201.667 129.075C202.444 128.601 203.002 127.841 203.22 126.958C203.439 126.075 203.3 125.142 202.834 124.362C202.368 123.581 201.612 123.016 200.732 122.789C184.019 118.654 171.987 123.15 164.837 127.651Z" fill="#7C9FA5"/>
<path d="M230.29 91.1213C231.135 91.472 232.085 91.4727 232.93 91.1231C233.776 90.7736 234.448 90.1025 234.798 89.2575C235.149 88.4126 235.15 87.4629 234.8 86.6174C234.451 85.7719 233.779 85.1 232.934 84.7493C208.379 74.5583 190.531 82.1899 179.884 90.3878C172.82 95.8812 166.973 102.781 162.713 110.65C162.512 111.056 162.392 111.497 162.361 111.949C162.33 112.401 162.389 112.855 162.533 113.284C162.678 113.713 162.905 114.11 163.203 114.452C163.501 114.793 163.863 115.072 164.269 115.274C164.674 115.475 165.116 115.595 165.568 115.626C166.02 115.657 166.473 115.598 166.902 115.454C167.332 115.309 167.728 115.082 168.07 114.784C168.411 114.486 168.691 114.124 168.892 113.718C172.693 106.793 177.865 100.715 184.092 95.8538C197.48 85.5489 213.023 83.9554 230.29 91.1213Z" fill="#7C9FA5"/>
<path d="M191.53 65.5682C191.248 66.4385 191.324 67.3851 191.74 68.1996C192.157 69.0141 192.88 69.6299 193.75 69.9114C198.499 71.3106 203.423 72.0223 208.374 72.0247C214.142 72.0247 220.805 70.9836 226.779 67.4423C234.597 62.8099 239.61 54.9172 241.688 43.9869C241.774 43.5412 241.772 43.0828 241.681 42.638C241.59 42.1932 241.412 41.7709 241.157 41.3951C240.902 41.0193 240.575 40.6975 240.196 40.4482C239.817 40.1988 239.392 40.0268 238.946 39.9421C238.5 39.8573 238.041 39.8615 237.597 39.9543C237.152 40.0471 236.731 40.2267 236.356 40.4828C235.981 40.739 235.66 41.0666 235.412 41.447C235.164 41.8273 234.994 42.2528 234.911 42.6992C233.222 51.5875 229.313 57.9107 223.292 61.4922C211.839 68.3064 196.119 63.4279 195.87 63.3485C195 63.0681 194.054 63.1443 193.24 63.5605C192.427 63.9766 191.812 64.6987 191.53 65.5682Z" fill="#7C9FA5"/>
<path d="M145.935 154.692C147.164 154.692 148.365 154.328 149.387 153.646C150.408 152.963 151.205 151.993 151.675 150.858C152.145 149.723 152.268 148.474 152.029 147.268C151.789 146.063 151.197 144.956 150.329 144.088C149.46 143.219 148.353 142.627 147.148 142.387C145.943 142.147 144.694 142.27 143.558 142.741C142.423 143.211 141.453 144.007 140.77 145.029C140.088 146.05 139.723 147.251 139.723 148.48C139.725 150.127 140.38 151.706 141.545 152.87C142.709 154.035 144.288 154.69 145.935 154.692ZM145.935 147.794C146.071 147.794 146.204 147.834 146.317 147.909C146.43 147.985 146.518 148.092 146.57 148.217C146.622 148.343 146.636 148.481 146.609 148.614C146.583 148.748 146.518 148.87 146.421 148.966C146.325 149.063 146.203 149.128 146.07 149.154C145.936 149.181 145.798 149.167 145.672 149.115C145.547 149.063 145.44 148.975 145.364 148.862C145.289 148.749 145.249 148.616 145.249 148.48C145.25 148.298 145.322 148.124 145.451 147.996C145.579 147.867 145.753 147.795 145.935 147.794Z" fill="#7C9FA5"/>
<path d="M194.812 42.0144C196.041 42.0144 197.242 41.6501 198.263 40.9675C199.285 40.2849 200.081 39.3146 200.551 38.1795C201.022 37.0444 201.145 35.7953 200.905 34.5903C200.665 33.3852 200.073 32.2783 199.205 31.4095C198.336 30.5407 197.229 29.949 196.024 29.7093C194.819 29.4696 193.57 29.5927 192.435 30.0628C191.3 30.533 190.329 31.3293 189.647 32.3509C188.964 33.3725 188.6 34.5735 188.6 35.8022C188.602 37.4492 189.257 39.0283 190.421 40.1929C191.586 41.3575 193.165 42.0126 194.812 42.0144ZM194.812 35.1158C194.948 35.1158 195.081 35.1561 195.194 35.2316C195.307 35.3071 195.395 35.4144 195.447 35.54C195.499 35.6656 195.512 35.8037 195.486 35.937C195.459 36.0703 195.394 36.1927 195.298 36.2887C195.201 36.3848 195.079 36.4502 194.946 36.4766C194.812 36.5031 194.674 36.4894 194.549 36.4373C194.423 36.3852 194.316 36.2971 194.24 36.184C194.165 36.071 194.125 35.9381 194.125 35.8022C194.126 35.6203 194.199 35.4462 194.327 35.3176C194.456 35.1891 194.63 35.1165 194.812 35.1158Z" fill="#7C9FA5"/>
<path d="M282.371 37.2775C281.143 37.2775 279.942 37.6418 278.92 38.3245C277.898 39.0071 277.102 39.9773 276.632 41.1125C276.162 42.2477 276.039 43.4968 276.278 44.7019C276.518 45.9069 277.11 47.0138 277.979 47.8826C278.848 48.7514 279.955 49.343 281.16 49.5826C282.365 49.8223 283.614 49.6992 284.749 49.2289C285.884 48.7586 286.854 47.9623 287.537 46.9406C288.219 45.9189 288.584 44.7178 288.584 43.4891C288.582 41.8421 287.927 40.2632 286.762 39.0986C285.597 37.9341 284.018 37.2791 282.371 37.2775ZM282.371 44.1761C282.235 44.1761 282.103 44.1358 281.99 44.0603C281.877 43.9848 281.789 43.8775 281.737 43.752C281.685 43.6265 281.671 43.4884 281.698 43.3551C281.724 43.2218 281.789 43.0994 281.886 43.0033C281.982 42.9073 282.104 42.8418 282.237 42.8153C282.371 42.7888 282.509 42.8024 282.634 42.8544C282.76 42.9064 282.867 42.9945 282.942 43.1074C283.018 43.2204 283.058 43.3532 283.058 43.4891C283.058 43.6711 282.985 43.8454 282.856 43.9741C282.728 44.1027 282.553 44.1754 282.371 44.1761Z" fill="#7C9FA5"/>
<path d="M143.392 119.713C143.392 118.484 143.028 117.283 142.345 116.261C141.662 115.239 140.692 114.443 139.557 113.973C138.421 113.503 137.172 113.38 135.967 113.62C134.762 113.86 133.655 114.452 132.786 115.321C131.918 116.19 131.326 117.298 131.087 118.503C130.848 119.708 130.971 120.957 131.442 122.092C131.912 123.228 132.709 124.197 133.731 124.88C134.753 125.562 135.955 125.926 137.184 125.925C138.83 125.922 140.408 125.267 141.572 124.102C142.736 122.938 143.391 121.359 143.392 119.713ZM137.184 120.403C137.048 120.403 136.915 120.363 136.802 120.287C136.689 120.212 136.601 120.105 136.549 119.98C136.497 119.854 136.483 119.716 136.509 119.583C136.535 119.45 136.6 119.327 136.696 119.231C136.792 119.135 136.914 119.069 137.047 119.042C137.18 119.015 137.318 119.028 137.444 119.08C137.569 119.132 137.677 119.219 137.753 119.332C137.829 119.444 137.869 119.577 137.87 119.713C137.869 119.895 137.796 120.07 137.667 120.198C137.538 120.327 137.363 120.4 137.181 120.4L137.184 120.403Z" fill="#7C9FA5"/>
<path d="M272.142 123.613C270.913 123.613 269.712 123.978 268.69 124.66C267.669 125.343 266.873 126.313 266.402 127.448C265.932 128.583 265.809 129.832 266.049 131.038C266.289 132.243 266.88 133.349 267.749 134.218C268.618 135.087 269.725 135.679 270.93 135.918C272.135 136.158 273.384 136.035 274.519 135.565C275.654 135.095 276.624 134.298 277.307 133.277C277.99 132.255 278.354 131.054 278.354 129.826C278.352 128.179 277.697 126.6 276.532 125.435C275.368 124.27 273.789 123.615 272.142 123.613ZM272.142 130.512C272.006 130.512 271.873 130.472 271.761 130.396C271.648 130.321 271.56 130.213 271.508 130.088C271.456 129.962 271.443 129.824 271.469 129.691C271.496 129.558 271.561 129.436 271.657 129.34C271.753 129.244 271.876 129.179 272.009 129.152C272.142 129.126 272.28 129.139 272.405 129.191C272.531 129.243 272.638 129.331 272.713 129.444C272.789 129.557 272.829 129.69 272.829 129.826C272.828 130.007 272.755 130.182 272.627 130.31C272.498 130.439 272.324 130.511 272.142 130.512Z" fill="#7C9FA5"/>
</svg>
