<svg width="93" height="90" viewBox="0 0 93 90" fill="none" xmlns="http://www.w3.org/2000/svg">
<path d="M3.84863 3.84607H88.5144V86.1537H3.84863V3.84607Z" fill="url(#paint0_radial)"/>
<path d="M3.84839 3.84609H88.5142V86.1537H3.84839V3.84609ZM0 90H92.3625V0H0V90ZM60.4974 32.0769C60.4974 31.7692 60.6128 31.6153 60.9593 31.6153H67.0013C67.309 31.6153 67.4631 31.7306 67.4631 32.0769V62.4231C67.4631 62.7306 67.3861 62.8846 67.0013 62.8846H61.0363C60.6515 62.8846 60.5359 62.6923 60.5359 62.3847V32.0769H60.4974ZM60.0741 23.3461C60.0741 20.8846 61.8059 19.4231 63.9996 19.4231C66.3472 19.4231 67.925 20.9999 67.925 23.3461C67.925 25.8845 66.2702 27.2691 63.9227 27.2691C61.6904 27.2692 60.0741 25.8845 60.0741 23.3461ZM42.7562 44.7307C41.6787 40.4615 39.1388 31.1538 38.1765 26.6538H38.0995C37.2913 31.1538 35.2518 38.7691 33.6355 44.7307H42.7562ZM32.0575 50.9616L29.0172 62.5C28.9403 62.8075 28.8248 62.8844 28.44 62.8844H22.7828C22.398 62.8844 22.3209 62.7691 22.398 62.3076L33.3275 24.0767C33.5199 23.3845 33.6353 22.7691 33.7123 20.8846C33.7123 20.6154 33.8277 20.5 34.0201 20.5H42.1019C42.3712 20.5 42.4866 20.5769 42.5638 20.8846L54.8017 62.3845C54.8787 62.692 54.8017 62.8844 54.4939 62.8844H48.1054C47.7976 62.8844 47.605 62.8075 47.5282 62.5385L44.3724 50.9616H32.0575Z" fill="#FF7F18"/>
<defs>
<radialGradient id="paint0_radial" cx="0" cy="0" r="1" gradientUnits="userSpaceOnUse" gradientTransform="translate(31.7334 22.2913) scale(64.3459 62.2615)">
<stop stop-color="#423325" stop-opacity="0.98"/>
<stop offset="1" stop-color="#1C0A00"/>
</radialGradient>
</defs>
</svg>
