<svg width="112" height="98" viewBox="0 0 112 98" fill="none" xmlns="http://www.w3.org/2000/svg">
<path d="M109.56 16.5155L100.536 7.49095C98.962 5.91748 96.8697 5.05057 94.6443 5.05057C92.419 5.05057 90.3269 5.91704 88.7532 7.49095L78.772 17.4719C78.7718 17.4721 78.7716 17.4723 78.7714 17.4723C78.7714 17.4723 78.7712 17.4727 78.7709 17.473L62.3773 33.8666C62.5799 30.8625 63.5326 27.1061 65.2067 22.777C67.5674 16.6717 66.2864 11.0312 61.5999 6.89398C57.1925 3.0035 50.2555 0.836343 42.0666 0.791062C41.9826 0.790624 41.899 0.790405 41.815 0.790405C33.3439 0.790405 24.2988 3.14832 16.3157 7.44173C9.49661 11.1093 4.53491 15.5292 1.96743 20.2238C-0.301447 24.3726 -0.623885 28.6782 1.08302 32.0369C2.27609 34.385 4.35334 36.0626 6.93154 36.7604C9.59286 37.4805 12.5569 37.115 15.5039 35.703C23.6957 31.7771 33.238 30.9867 34.656 33.2398C34.8837 33.6017 36.4526 37.1187 21.6211 49.0286C19.9207 50.3942 18.3177 51.7516 16.8578 53.0626C16.1836 53.6681 16.1278 54.7052 16.7331 55.3793C17.0571 55.7403 17.5048 55.9238 17.9546 55.9238C18.3448 55.9238 18.7366 55.7854 19.0501 55.504C20.4656 54.2331 22.022 52.9149 23.676 51.5869C35.4785 42.1091 39.9786 35.5361 37.4334 31.4918C34.2981 26.5106 21.8602 29.0184 14.086 32.7435C9.84223 34.777 5.698 33.8753 4.00859 30.5503C2.80022 28.1721 3.10559 24.9818 4.84663 21.7981C6.42382 18.9141 9.96386 14.5839 17.8702 10.3319C25.4577 6.25085 34.0485 4.02485 42.0484 4.07254C49.3363 4.11279 55.6711 6.03779 59.4284 9.35427C63.0623 12.5618 64.002 16.7942 62.1463 21.5936C59.6797 27.9717 58.6848 33.1687 59.1772 37.0671L30.6631 65.5814C28.3872 67.8571 26.6379 70.6713 25.6045 73.72L23.2842 80.5667C14.9441 80.4757 9.31351 78.48 7.75557 75.0282C6.2556 71.7049 8.30048 66.7944 13.6695 60.8275C14.2754 60.154 14.2207 59.1167 13.5472 58.5105C12.8741 57.9046 11.8364 57.9593 11.2302 58.6328C4.83372 65.7416 2.65825 71.7123 4.7646 76.3785C6.85169 81.0025 12.8525 83.5586 22.1791 83.8283L20.1408 89.8409C19.4546 91.865 19.9673 94.0612 21.4784 95.5726C22.5464 96.6405 23.9562 97.2097 25.4059 97.2097C26.0077 97.2097 26.6162 97.1115 27.2099 96.9102L43.3307 91.4463C46.3792 90.4133 49.1933 88.664 51.4696 86.3881L67.423 70.4346C71.2321 70.3347 75.6006 71.6809 81.1033 74.6458C81.3509 74.7792 81.6173 74.8424 81.88 74.8424C82.4641 74.8424 83.0296 74.5299 83.3258 73.9797C83.7556 73.1821 83.4575 72.187 82.6597 71.7572C78.0443 69.2702 74.0947 67.8289 70.5181 67.3395L92.1257 45.732C92.1259 45.7318 92.1263 45.7316 92.1265 45.7311C92.1267 45.7309 92.127 45.7305 92.1274 45.7303L102.573 35.2852C103.213 34.6444 103.213 33.6056 102.573 32.9651C101.932 32.3244 100.893 32.3244 100.252 32.9651L98.4178 34.7995L82.2517 18.6334L91.0733 9.81189C92.0268 8.85814 93.2949 8.33292 94.6439 8.33292C95.9929 8.33292 97.2613 8.85814 98.2148 9.81189L107.239 18.8364C108.193 19.7902 108.719 21.0583 108.719 22.4073C108.719 23.7559 108.193 25.0242 107.239 25.9782L105.551 27.6667C104.91 28.3075 104.91 29.3463 105.551 29.987C106.191 30.6275 107.23 30.6277 107.871 29.9868L109.56 28.2983C111.133 26.7248 112 24.6325 112 22.4073C112 20.1813 111.134 18.089 109.56 16.5155ZM72.4806 28.4041L76.3225 32.2458L41.0382 67.5303L41.1076 67.2566C41.369 66.2239 41.0756 65.1577 40.3223 64.4043C39.5693 63.6514 38.5027 63.3576 37.47 63.619L37.1965 63.6881L72.4806 28.4041ZM46.4845 70.5668C45.7315 69.8136 44.666 69.5198 43.6322 69.7814L43.3585 69.8508L78.6425 34.5666L82.4845 38.4085L47.2004 73.6925L47.2696 73.419C47.5312 72.3861 47.2376 71.3199 46.4845 70.5668ZM26.1569 93.8024C25.3107 94.0888 24.4298 93.8831 23.7987 93.2521C23.1676 92.621 22.9618 91.7394 23.2484 90.8941L25.6404 83.8362L33.2148 91.4104L26.1569 93.8024ZM48.8332 84.3752C46.9697 86.1468 44.7124 87.5136 42.2781 88.3385L36.6812 90.2355L26.8155 80.3701L28.7123 74.7731C29.5374 72.3384 30.9044 70.0813 32.6763 68.218L37.8082 66.9187L36.9524 70.2992C36.6912 71.3306 36.9839 72.3953 37.7351 73.1487C37.736 73.1495 37.7369 73.1506 37.7377 73.1515C37.7388 73.1526 37.7399 73.1533 37.7408 73.1544C38.4939 73.9055 39.5588 74.1985 40.59 73.9368L43.9706 73.0811L43.1148 76.4616C42.8534 77.4944 43.1468 78.5606 43.9001 79.3139C44.6533 80.0671 45.7202 80.3611 46.7524 80.0992L50.1328 79.2433L48.8332 84.3752ZM53.3624 79.8549L53.4318 79.581C53.6932 78.5483 53.3998 77.4821 52.6464 76.7287C51.8933 75.9756 50.8271 75.682 49.7942 75.9434L49.5207 76.0125L84.8047 40.7285L88.6466 44.5705L53.3624 79.8549ZM96.0979 37.1189L90.9669 42.25L74.8008 26.0839L79.9319 20.9528L96.0979 37.1189Z" fill="#7C9FA5"/>
</svg>
