<svg width="82" height="71" viewBox="0 0 82 71" fill="none" xmlns="http://www.w3.org/2000/svg">
<path d="M80.1935 11.5794L73.5879 4.93406C72.4361 3.77541 70.9046 3.13705 69.2758 3.13705C67.6469 3.13705 66.1155 3.77509 64.9637 4.93406L57.6579 12.2837C57.6577 12.2839 57.6576 12.284 57.6574 12.284C57.6574 12.284 57.6572 12.2843 57.6571 12.2845L45.6576 24.3562C45.8059 22.1441 46.5032 19.378 47.7286 16.1902C49.4566 11.6945 48.5189 7.54099 45.0886 4.49447C41.8626 1.62965 36.785 0.0338273 30.791 0.000483591C30.7295 0.00016143 30.6684 0 30.6069 0C24.4064 0 17.7857 1.73629 11.9424 4.89782C6.95112 7.5985 3.31937 10.8531 1.44008 14.3101C-0.220646 17.3651 -0.456658 20.5357 0.79273 23.0089C1.666 24.738 3.18647 25.9733 5.0736 26.4871C7.02157 27.0174 9.19115 26.7482 11.3482 25.7085C17.3443 22.8176 24.3289 22.2356 25.3667 23.8947C25.5334 24.1611 26.6818 26.751 15.8257 35.521C14.5811 36.5266 13.4078 37.5262 12.3392 38.4915C11.8457 38.9374 11.8049 39.7011 12.2479 40.1975C12.4851 40.4633 12.8128 40.5984 13.142 40.5984C13.4277 40.5984 13.7144 40.4965 13.9439 40.2893C14.98 39.3535 16.1192 38.3828 17.3299 37.4049C25.9688 30.4257 29.2627 25.5856 27.3997 22.6075C25.1048 18.9395 16.0007 20.7862 10.3104 23.5292C7.20411 25.0266 4.1707 24.3626 2.93413 21.9142C2.04964 20.163 2.27316 17.8137 3.54753 15.4694C4.70197 13.3457 7.29313 10.1571 13.0802 7.02602C18.634 4.0209 24.9221 2.38174 30.7777 2.41685C36.1121 2.44649 40.749 3.864 43.4991 6.30615C46.159 8.66807 46.8468 11.7847 45.4886 15.3188C43.6831 20.0154 42.9549 23.8424 43.3153 26.713L22.4441 47.71C20.7783 49.3857 19.4978 51.458 18.7414 53.703L17.0431 58.7447C10.9385 58.6777 6.81711 57.2081 5.67676 54.6663C4.57884 52.2191 6.07561 48.6032 10.0055 44.2094C10.449 43.7134 10.409 42.9496 9.916 42.5032C9.42332 42.057 8.66373 42.0973 8.22005 42.5933C3.53808 47.8279 1.94573 52.2246 3.48749 55.6606C5.01516 59.0655 9.40747 60.9478 16.2342 61.1464L14.7422 65.5738C14.2399 67.0643 14.6153 68.6816 15.7213 69.7945C16.503 70.5809 17.535 71 18.5961 71C19.0365 71 19.482 70.9277 19.9165 70.7795L31.7163 66.756C33.9477 65.9954 36.0074 64.7072 37.6736 63.0313L49.3509 51.2837C52.139 51.2101 55.3365 52.2014 59.3642 54.3847C59.5455 54.483 59.7405 54.5295 59.9328 54.5295C60.3603 54.5295 60.7742 54.2993 60.991 53.8942C61.3056 53.3069 61.0874 52.5742 60.5035 52.2576C57.1252 50.4263 54.2343 49.3649 51.6164 49.0046L67.4322 33.0935C67.4323 33.0934 67.4327 33.0932 67.4328 33.0929C67.433 33.0927 67.4331 33.0924 67.4335 33.0922L75.0789 25.4008C75.5478 24.929 75.5478 24.164 75.0789 23.6924C74.6097 23.2206 73.8495 23.2206 73.3805 23.6924L72.0378 25.0432L60.2048 13.139L66.6619 6.64313C67.3598 5.94082 68.288 5.55406 69.2754 5.55406C70.2629 5.55406 71.1912 5.94082 71.8892 6.64313L78.4948 13.2885C79.1929 13.9908 79.5775 14.9246 79.5775 15.918C79.5775 16.9111 79.193 17.845 78.4948 18.5475L77.2588 19.7909C76.7899 20.2627 76.7899 21.0276 77.259 21.4994C77.7277 21.9711 78.4881 21.9712 78.9574 21.4993L80.1931 20.2559C81.345 19.0972 81.9794 17.5565 81.9794 15.918C81.9795 14.2788 81.3453 12.7381 80.1935 11.5794ZM53.0528 20.3339L55.8649 23.1628L30.0383 49.1451L30.0891 48.9436C30.2804 48.1831 30.0657 47.398 29.5142 46.8432C28.9631 46.2888 28.1824 46.0725 27.4265 46.2649L27.2263 46.3158L53.0528 20.3339ZM34.0247 51.381C33.4736 50.8264 32.6937 50.6101 31.937 50.8027L31.7366 50.8538L57.5631 24.8717L60.3752 27.7007L34.5488 53.6827L34.5994 53.4814C34.7909 52.7207 34.576 51.9356 34.0247 51.381ZM19.1457 68.491C18.5264 68.7019 17.8816 68.5505 17.4197 68.0857C16.9578 67.621 16.8071 66.9719 17.0168 66.3494L18.7677 61.1522L24.3119 66.7296L19.1457 68.491ZM35.7439 61.5491C34.3798 62.8537 32.7276 63.8601 30.9458 64.4675L26.8491 65.8644L19.6279 58.5999L21.0162 54.4784C21.6202 52.6856 22.6207 51.0236 23.9177 49.6515L27.674 48.6947L27.0476 51.184C26.8565 51.9435 27.0707 52.7275 27.6205 53.2823C27.6212 53.2829 27.6218 53.2837 27.6225 53.2844C27.6233 53.2852 27.6241 53.2856 27.6247 53.2864C28.176 53.8396 28.9554 54.0553 29.7102 53.8626L32.1847 53.2325L31.5583 55.7218C31.3669 56.4823 31.5817 57.2674 32.1331 57.8222C32.6844 58.3768 33.4653 58.5932 34.2209 58.4004L36.6951 57.7701L35.7439 61.5491ZM39.0591 58.2205L39.1098 58.0188C39.3012 57.2584 39.0865 56.4733 38.535 55.9185C37.9837 55.3639 37.2033 55.1477 36.4473 55.3402L36.2471 55.3911L62.0736 29.4091L64.8857 32.2382L39.0591 58.2205ZM70.3397 26.7511L66.584 30.5295L54.7511 18.6253L58.5068 14.847L70.3397 26.7511Z" fill="white"/>
</svg>
