<svg width="90" height="90" viewBox="0 0 90 90" fill="none" xmlns="http://www.w3.org/2000/svg">
<path d="M81.8413 0H8.15871C3.65273 0 0 3.65273 0 8.15871V81.8413C0 86.3473 3.65273 90 8.15871 90H81.8413C86.3473 90 90 86.3473 90 81.8413V8.15871C90 3.65273 86.3473 0 81.8413 0Z" fill="#DC395F"/>
<path d="M30.078 28.3166C33.0698 28.3166 35.5761 25.9717 35.5761 22.8983C35.5761 19.8271 33.0698 17.4825 30.078 17.4825C27.0862 17.4825 24.5806 19.8271 24.5806 22.8983C24.5806 25.9713 27.0862 28.3166 30.078 28.3166ZM18.6783 57.3275C18.3552 58.7022 18.1931 60.1865 18.1931 61.3972C18.1931 66.1683 20.7803 69.3355 26.2783 69.3355C30.8381 69.3355 34.5348 66.6278 37.1965 62.2554L35.5712 68.7779H44.6257L49.8007 48.022C51.0944 42.7669 53.6007 40.0391 57.4011 40.0391C60.3926 40.0391 62.252 41.8996 62.252 44.9708C62.252 45.8606 62.1711 46.8299 61.8477 47.8814L59.1793 57.4218C58.775 58.7964 58.614 60.1717 58.614 61.4644C58.614 65.9936 61.2813 69.3063 66.8603 69.3063C71.6306 69.3063 75.4303 66.2354 77.5326 58.8776L73.9755 57.5044C72.1966 62.4336 70.6603 63.3249 69.4474 63.3249C68.2345 63.3249 67.5876 62.517 67.5876 60.9008C67.5876 60.1731 67.7501 59.3656 67.9919 58.3931L70.5798 49.0985C71.2263 46.916 71.4692 44.9807 71.4692 43.2025C71.4692 36.2493 67.2645 32.6204 62.1711 32.6204C57.4011 32.6204 52.5496 36.9232 50.1245 41.4517L51.9027 33.3236H38.0778L36.1372 40.4828H42.6056L38.6224 56.4297C35.4946 63.3829 29.749 63.4957 29.0279 63.3343C27.8438 63.0672 27.0866 62.6175 27.0866 61.0791C27.0866 60.1914 27.2483 58.9163 27.6526 57.3789L33.7171 33.3236H18.3552L16.4146 40.4828H22.8014L18.6786 57.3275" fill="white"/>
</svg>
