<svg width="60" height="60" viewBox="0 0 60 60" fill="none" xmlns="http://www.w3.org/2000/svg">
<path d="M30 60C46.5685 60 60 46.5685 60 30C60 13.4315 46.5685 0 30 0C13.4315 0 0 13.4315 0 30C0 46.5685 13.4315 60 30 60Z" fill="#F26F8C"/>
<path d="M30 0C28.6738 0 27.3679 0.0871875 26.087 0.253945C40.8066 2.17148 52.1739 14.7578 52.1739 30C52.1739 45.2422 40.8065 57.8285 26.0869 59.7461C27.3679 59.9128 28.6738 60 30 60C46.5686 60 60 46.5684 60 30C60 13.4316 46.5686 0 30 0Z" fill="#F26F8C"/>
<path d="M41.1139 10.7609H18.8858C14.4056 10.7609 10.7607 14.4057 10.7607 18.8859V41.1143C10.7607 45.5945 14.4056 49.2394 18.8858 49.2394H41.1142C45.5944 49.2394 49.2393 45.5945 49.2393 41.1143V18.8859C49.239 14.4057 45.5941 10.7609 41.1139 10.7609ZM47.2825 41.1141C47.2825 44.5154 44.5153 47.2826 41.1139 47.2826H18.8858C15.4845 47.2826 12.7173 44.5154 12.7173 41.1141V18.8859C12.7173 15.4846 15.4845 12.7174 18.8858 12.7174H41.1142C44.5155 12.7174 47.2827 15.4846 47.2827 18.8859V41.1141H47.2825Z" fill="white"/>
<path d="M29.9993 19.8913C24.4253 19.8913 19.8906 24.426 19.8906 30C19.8906 35.574 24.4253 40.1087 29.9993 40.1087C35.5734 40.1087 40.1081 35.574 40.1081 30C40.1081 24.426 35.5734 19.8913 29.9993 19.8913ZM29.9993 38.1522C25.5043 38.1522 21.8472 34.495 21.8472 30C21.8472 25.505 25.5044 21.8479 29.9993 21.8479C34.4943 21.8479 38.1515 25.505 38.1515 30C38.1515 34.495 34.4944 38.1522 29.9993 38.1522Z" fill="white"/>
<path d="M40.4344 20.8696C41.8751 20.8696 43.0431 19.7016 43.0431 18.2609C43.0431 16.8201 41.8751 15.6522 40.4344 15.6522C38.9936 15.6522 37.8257 16.8201 37.8257 18.2609C37.8257 19.7016 38.9936 20.8696 40.4344 20.8696Z" fill="white"/>
</svg>
