<svg width="23" height="23" viewBox="0 0 23 23" fill="none" xmlns="http://www.w3.org/2000/svg">
<path d="M0.286865 7.65967H5.135V22.2653H0.286865V7.65967Z" fill="white"/>
<path d="M2.75289 0.624512C1.08586 0.624512 0 1.71037 0 3.14799C0 4.55502 1.05527 5.67147 2.67642 5.67147H2.70701C4.40462 5.67147 5.4599 4.55502 5.4599 3.14799C5.42931 1.71037 4.41991 0.624512 2.75289 0.624512Z" fill="white"/>
<path d="M17.0664 7.32324C14.497 7.32324 13.3347 8.74557 12.6924 9.73966V7.65971H7.84424V22.2653H12.6924V14.1137C12.6924 13.6702 12.7229 13.2419 12.8453 12.9361C13.1971 12.0643 13.9923 11.162 15.3382 11.162C17.097 11.162 17.8005 12.5078 17.8005 14.4655V22.2806H22.6486V13.8996C22.6486 9.4032 20.2628 7.32324 17.0664 7.32324Z" fill="white"/>
</svg>
