<svg width="280" height="46" viewBox="0 0 280 46" fill="none" xmlns="http://www.w3.org/2000/svg">
<path d="M150.958 10.3208C151.488 10.3208 151.921 10.5002 152.258 10.8589C152.594 11.1938 152.763 11.6363 152.763 12.1865V34.2161C152.763 34.7662 152.606 35.1968 152.294 35.5077C152.005 35.8187 151.596 35.9742 151.067 35.9742C150.562 35.9742 150.165 35.8187 149.876 35.5077C149.587 35.1968 149.443 34.7662 149.443 34.2161V17.5324L142.371 30.9153C141.913 31.7524 141.324 32.171 140.602 32.171C139.881 32.171 139.291 31.7524 138.834 30.9153L131.726 17.6759V34.2161C131.726 34.7662 131.581 35.1968 131.293 35.5077C131.004 35.8187 130.595 35.9742 130.066 35.9742C129.561 35.9742 129.152 35.8187 128.839 35.5077C128.55 35.1729 128.406 34.7423 128.406 34.2161V12.1865C128.406 11.6363 128.574 11.1938 128.911 10.8589C129.248 10.5002 129.681 10.3208 130.21 10.3208C130.956 10.3208 131.557 10.7513 132.014 11.6124L140.638 28.0091L149.19 11.6124C149.647 10.7513 150.237 10.3208 150.958 10.3208ZM171.917 17.9271C172.47 17.9271 172.903 18.0825 173.216 18.3935C173.553 18.7045 173.721 19.135 173.721 19.6852V34.2879C173.721 34.7902 173.553 35.1968 173.216 35.5077C172.879 35.8187 172.434 35.9742 171.881 35.9742C171.376 35.9742 170.967 35.8307 170.654 35.5436C170.341 35.2327 170.185 34.826 170.185 34.3237V32.9603C169.632 33.965 168.862 34.7304 167.875 35.2566C166.913 35.7828 165.831 36.0459 164.628 36.0459C160.346 36.0459 158.205 33.7019 158.205 29.0137V19.6852C158.205 19.135 158.361 18.7045 158.674 18.3935C159.011 18.0825 159.468 17.9271 160.045 17.9271C160.598 17.9271 161.031 18.0825 161.344 18.3935C161.681 18.7045 161.849 19.135 161.849 19.6852V28.9778C161.849 30.389 162.138 31.4295 162.715 32.0993C163.293 32.769 164.183 33.1039 165.386 33.1039C166.805 33.1039 167.936 32.6494 168.778 31.7405C169.644 30.8316 170.077 29.6236 170.077 28.1167V19.6852C170.077 19.1589 170.245 18.7404 170.582 18.4294C170.918 18.0945 171.364 17.9271 171.917 17.9271ZM184.955 36.0459C182.502 36.0459 180.493 35.5436 178.929 34.539C178.496 34.2759 178.183 34.0008 177.991 33.7138C177.823 33.4268 177.738 33.1039 177.738 32.7451C177.738 32.3623 177.847 32.0394 178.063 31.7763C178.28 31.5132 178.556 31.3817 178.893 31.3817C179.206 31.3817 179.699 31.573 180.373 31.9557C181.094 32.3385 181.792 32.6494 182.465 32.8886C183.163 33.1278 184.029 33.2474 185.063 33.2474C186.218 33.2474 187.12 33.044 187.77 32.6374C188.419 32.2308 188.744 31.6568 188.744 30.9153C188.744 30.4369 188.612 30.0542 188.347 29.7671C188.106 29.4801 187.673 29.2289 187.048 29.0137C186.423 28.7745 185.497 28.5233 184.27 28.2602C182.153 27.8057 180.625 27.1958 179.687 26.4304C178.773 25.6411 178.316 24.5766 178.316 23.2372C178.316 22.2086 178.616 21.2878 179.218 20.4745C179.819 19.6373 180.649 18.9915 181.708 18.537C182.766 18.0825 183.969 17.8553 185.316 17.8553C186.279 17.8553 187.217 17.9869 188.131 18.25C189.045 18.4892 189.851 18.848 190.548 19.3264C191.342 19.8526 191.739 20.4625 191.739 21.1562C191.739 21.5389 191.619 21.8618 191.378 22.1249C191.162 22.388 190.897 22.5196 190.584 22.5196C190.368 22.5196 190.151 22.4718 189.935 22.3761C189.718 22.2804 189.43 22.1249 189.069 21.9096C188.419 21.5269 187.806 21.2279 187.229 21.0127C186.675 20.7974 185.977 20.6898 185.136 20.6898C184.125 20.6898 183.307 20.905 182.682 21.3356C182.081 21.7661 181.78 22.3521 181.78 23.0936C181.78 23.7634 182.057 24.2896 182.61 24.6723C183.187 25.0311 184.258 25.378 185.821 25.7128C187.433 26.0477 188.696 26.4304 189.61 26.8609C190.524 27.2915 191.174 27.8297 191.559 28.4755C191.967 29.0974 192.172 29.8987 192.172 30.8794C192.172 32.4341 191.511 33.6899 190.187 34.6467C188.888 35.5795 187.145 36.0459 184.955 36.0459ZM198.069 35.9742C197.54 35.9742 197.095 35.8307 196.734 35.5436C196.397 35.2566 196.229 34.826 196.229 34.252V19.6852C196.229 19.1111 196.397 18.6805 196.734 18.3935C197.095 18.0825 197.54 17.9271 198.069 17.9271C198.598 17.9271 199.031 18.0825 199.368 18.3935C199.705 18.6805 199.873 19.1111 199.873 19.6852V34.252C199.873 34.826 199.705 35.2566 199.368 35.5436C199.031 35.8307 198.598 35.9742 198.069 35.9742ZM198.069 14.411C197.372 14.411 196.818 14.2196 196.409 13.8369C196 13.4542 195.796 12.9519 195.796 12.33C195.796 11.7081 196 11.2177 196.409 10.8589C196.818 10.4762 197.372 10.2849 198.069 10.2849C198.743 10.2849 199.284 10.4762 199.693 10.8589C200.126 11.2177 200.342 11.7081 200.342 12.33C200.342 12.9519 200.138 13.4542 199.729 13.8369C199.32 14.2196 198.766 14.411 198.069 14.411ZM212.509 36.0459C210.802 36.0459 209.298 35.6752 207.999 34.9337C206.724 34.1922 205.726 33.1397 205.004 31.7763C204.306 30.4129 203.957 28.8343 203.957 27.0403C203.957 25.2224 204.318 23.6199 205.04 22.2326C205.786 20.8452 206.82 19.7689 208.143 19.0035C209.466 18.2381 210.982 17.8553 212.69 17.8553C213.604 17.8553 214.518 17.9869 215.432 18.25C216.37 18.5131 217.2 18.8719 217.922 19.3264C218.692 19.8526 219.077 20.4625 219.077 21.1562C219.077 21.5628 218.968 21.9096 218.752 22.1967C218.535 22.4598 218.259 22.5913 217.922 22.5913C217.705 22.5913 217.489 22.5435 217.272 22.4478C217.056 22.3283 216.779 22.1608 216.442 21.9455C215.841 21.5628 215.276 21.2758 214.747 21.0844C214.241 20.8692 213.628 20.7615 212.906 20.7615C211.271 20.7615 209.995 21.3116 209.081 22.412C208.191 23.5123 207.746 25.0431 207.746 27.0044C207.746 28.9658 208.191 30.4847 209.081 31.5611C209.972 32.6135 211.235 33.1397 212.87 33.1397C213.592 33.1397 214.23 33.0321 214.783 32.8168C215.336 32.6016 215.901 32.3145 216.479 31.9557C216.743 31.7883 217.008 31.6448 217.272 31.5252C217.537 31.4056 217.778 31.3458 217.994 31.3458C218.331 31.3458 218.608 31.4893 218.824 31.7763C219.041 32.0394 219.149 32.3743 219.149 32.781C219.149 33.1158 219.052 33.4268 218.86 33.7138C218.692 33.9769 218.391 34.252 217.958 34.539C217.236 35.0174 216.395 35.3882 215.432 35.6513C214.47 35.9144 213.495 36.0459 212.509 36.0459ZM232.91 33.2115C233.439 33.2593 233.812 33.4028 234.028 33.642C234.269 33.8573 234.389 34.1683 234.389 34.5749C234.389 35.0533 234.196 35.424 233.812 35.6871C233.451 35.9264 232.91 36.022 232.188 35.9742L231.214 35.9024C229.265 35.7589 227.809 35.1729 226.848 34.1444C225.885 33.0919 225.404 31.5491 225.404 29.516V21.0844H223.239C222.18 21.0844 221.651 20.618 221.651 19.6852C221.651 19.2546 221.783 18.9198 222.048 18.6805C222.337 18.4175 222.734 18.2859 223.239 18.2859H225.404V14.5904C225.404 14.0402 225.56 13.6097 225.873 13.2987C226.21 12.9878 226.655 12.8323 227.208 12.8323C227.762 12.8323 228.206 12.9878 228.544 13.2987C228.88 13.6097 229.049 14.0402 229.049 14.5904V18.2859H232.621C233.126 18.2859 233.511 18.4175 233.776 18.6805C234.064 18.9198 234.209 19.2546 234.209 19.6852C234.209 20.1396 234.064 20.4864 233.776 20.7256C233.511 20.9649 233.126 21.0844 232.621 21.0844H229.049V29.7671C229.049 30.8913 229.277 31.7165 229.734 32.2428C230.215 32.769 230.937 33.068 231.899 33.1397L232.91 33.2115ZM240.651 35.9742C240.121 35.9742 239.677 35.8307 239.316 35.5436C238.979 35.2566 238.811 34.826 238.811 34.252V19.6852C238.811 19.1111 238.979 18.6805 239.316 18.3935C239.677 18.0825 240.121 17.9271 240.651 17.9271C241.18 17.9271 241.613 18.0825 241.95 18.3935C242.287 18.6805 242.455 19.1111 242.455 19.6852V34.252C242.455 34.826 242.287 35.2566 241.95 35.5436C241.613 35.8307 241.18 35.9742 240.651 35.9742ZM240.651 14.411C239.953 14.411 239.4 14.2196 238.991 13.8369C238.582 13.4542 238.378 12.9519 238.378 12.33C238.378 11.7081 238.582 11.2177 238.991 10.8589C239.4 10.4762 239.953 10.2849 240.651 10.2849C241.325 10.2849 241.866 10.4762 242.275 10.8589C242.708 11.2177 242.924 11.7081 242.924 12.33C242.924 12.9519 242.72 13.4542 242.311 13.8369C241.902 14.2196 241.348 14.411 240.651 14.411ZM261.334 31.3817C261.67 31.3817 261.947 31.5132 262.164 31.7763C262.38 32.0394 262.488 32.3743 262.488 32.781C262.488 33.4746 262.055 34.0607 261.189 34.539C260.348 35.0174 259.421 35.3882 258.411 35.6513C257.425 35.9144 256.474 36.0459 255.56 36.0459C252.77 36.0459 250.569 35.2447 248.957 33.642C247.345 32.0156 246.539 29.803 246.539 27.0044C246.539 25.2105 246.888 23.6199 247.586 22.2326C248.307 20.8452 249.306 19.7689 250.581 19.0035C251.88 18.2381 253.347 17.8553 254.983 17.8553C257.34 17.8553 259.205 18.6088 260.576 20.1157C261.947 21.6226 262.633 23.6558 262.633 26.2151C262.633 27.1719 262.2 27.6503 261.334 27.6503H250.184C250.425 31.3577 252.216 33.2115 255.56 33.2115C256.451 33.2115 257.22 33.0919 257.87 32.8527C258.519 32.6135 259.205 32.3026 259.926 31.9199C259.999 31.872 260.191 31.7763 260.504 31.6328C260.84 31.4654 261.117 31.3817 261.334 31.3817ZM255.055 20.5104C253.66 20.5104 252.541 20.9529 251.699 21.8379C250.858 22.7229 250.352 23.9667 250.184 25.5693H259.493C259.421 23.9428 259 22.699 258.231 21.8379C257.485 20.9529 256.426 20.5104 255.055 20.5104ZM272.783 36.0459C270.329 36.0459 268.321 35.5436 266.757 34.539C266.324 34.2759 266.011 34.0008 265.819 33.7138C265.65 33.4268 265.566 33.1039 265.566 32.7451C265.566 32.3623 265.675 32.0394 265.891 31.7763C266.108 31.5132 266.384 31.3817 266.721 31.3817C267.034 31.3817 267.527 31.573 268.2 31.9557C268.922 32.3385 269.62 32.6494 270.293 32.8886C270.991 33.1278 271.857 33.2474 272.891 33.2474C274.046 33.2474 274.948 33.044 275.598 32.6374C276.247 32.2308 276.572 31.6568 276.572 30.9153C276.572 30.4369 276.439 30.0542 276.175 29.7671C275.934 29.4801 275.501 29.2289 274.876 29.0137C274.251 28.7745 273.324 28.5233 272.098 28.2602C269.98 27.8057 268.453 27.1958 267.515 26.4304C266.601 25.6411 266.144 24.5766 266.144 23.2372C266.144 22.2086 266.444 21.2878 267.046 20.4745C267.647 19.6373 268.477 18.9915 269.536 18.537C270.594 18.0825 271.797 17.8553 273.144 17.8553C274.106 17.8553 275.045 17.9869 275.958 18.25C276.872 18.4892 277.679 18.848 278.376 19.3264C279.17 19.8526 279.567 20.4625 279.567 21.1562C279.567 21.5389 279.447 21.8618 279.206 22.1249C278.99 22.388 278.725 22.5196 278.412 22.5196C278.196 22.5196 277.979 22.4718 277.763 22.3761C277.546 22.2804 277.258 22.1249 276.897 21.9096C276.247 21.5269 275.634 21.2279 275.056 21.0127C274.503 20.7974 273.805 20.6898 272.964 20.6898C271.953 20.6898 271.135 20.905 270.51 21.3356C269.908 21.7661 269.608 22.3521 269.608 23.0936C269.608 23.7634 269.885 24.2896 270.438 24.6723C271.015 25.0311 272.086 25.378 273.649 25.7128C275.261 26.0477 276.524 26.4304 277.438 26.8609C278.352 27.2915 279.001 27.8297 279.386 28.4755C279.795 29.0974 280 29.8987 280 30.8794C280 32.4341 279.339 33.6899 278.015 34.6467C276.716 35.5795 274.972 36.0459 272.783 36.0459Z" fill="#393A3E"/>
<path d="M5 13.6789L56.7948 40.9993L108.59 13.6789" stroke="#7C9FA5" stroke-width="10" stroke-linecap="round" stroke-linejoin="round"/>
<path d="M108.59 32.6512L56.795 5.33084L5.00025 32.6512" stroke="#FFA7A6" stroke-width="10" stroke-linecap="round" stroke-linejoin="round"/>
</svg>
