<svg width="163" height="37" viewBox="0 0 163 37" fill="none" xmlns="http://www.w3.org/2000/svg">
<path d="M33.0031 3.40572C33.3847 2.94906 33.7663 2.87567 34.1479 3.18554C34.5461 3.47911 34.5212 3.83791 34.0732 4.26194C32.8123 5.4362 31.7588 6.40659 30.9126 7.17312C30.0831 7.92333 29.3116 8.49415 28.5982 8.88557C27.3041 9.61948 26.0349 9.83965 24.7906 9.54609C23.5628 9.23622 21.8208 8.51862 19.5644 7.39329C17.2085 6.21903 15.0683 5.59113 13.1437 5.50959C11.2192 5.41173 9.41903 6.1538 7.74335 7.73578C6.10084 9.28514 5.03072 10.8427 4.53299 12.4083C4.05185 13.9577 3.83617 15.5641 3.88594 17.2277C4.00208 21.1419 5.76902 24.42 9.18676 27.0621C12.6211 29.6878 16.8601 30.9355 21.9037 30.805C25.4376 30.7398 28.4821 29.9569 31.0371 28.4565C33.5921 26.956 34.6622 24.7135 34.2474 21.729C33.899 19.3642 32.6547 18.1084 30.5145 17.9616C28.3742 17.7985 26.0017 18.5324 23.3969 20.1633C19.9792 22.2998 17.4988 23.2457 15.9559 23.0011C14.4129 22.7565 12.2727 20.7831 9.53517 17.0809C9.20335 16.6569 9.19506 16.3551 9.51028 16.1757C9.82551 15.9963 10.1324 16.1268 10.4311 16.5672C11.4265 18.0187 12.704 18.459 14.2636 17.8882C15.8397 17.3011 17.5735 16.4693 19.4649 15.3929C20.7424 14.6916 21.9452 14.0556 23.0734 13.4847C24.2016 12.8976 25.6367 12.8079 27.3788 13.2156C29.0379 13.6234 30.6555 14.4959 32.2316 15.8332C33.8244 17.1706 34.8696 18.8667 35.3673 20.9217C35.7821 22.7157 35.7489 24.3466 35.2678 25.8144C34.7866 27.2822 34.1479 28.6033 33.3515 29.7775C31.8749 31.9792 29.884 33.7243 27.3788 35.0127C24.8901 36.3012 22.0448 36.9454 18.8427 36.9454C14.1143 36.9454 9.76744 35.3879 5.8022 32.2728C1.83696 29.1578 -0.095889 24.8522 0.00365679 19.356C0.136385 11.5766 6.05936 5.38727 17.7726 0.788106C18.3367 0.559778 18.9257 0.592396 19.5395 0.88596C24.6827 3.38125 28.0673 4.60443 29.6932 4.55551C31.3357 4.50658 32.439 4.12332 33.0031 3.40572Z" fill="black"/>
<path d="M42.6093 33.814C42.1779 34.0913 41.8461 34.0831 41.6138 33.7896C41.3815 33.496 41.4562 33.1861 41.8378 32.8599C44.6914 30.2668 47.2464 28.6114 49.5028 27.8938C51.7592 27.1762 54.729 27.9672 58.4122 30.2668C61.6806 32.3217 64.5757 33.2106 67.0975 32.9333C69.6194 32.6398 71.461 31.1638 72.6223 28.5054C74.6133 23.8899 74.0243 19.3152 70.8554 14.7813C67.7031 10.2474 63.4973 7.36882 58.238 6.14564C54.588 5.29757 50.9379 5.60744 47.2879 7.07526C43.6379 8.54308 41.4894 10.7285 40.8423 13.6315C40.046 17.1217 40.8009 19.6577 43.107 21.2397C45.4297 22.8217 47.8188 23.311 50.2743 22.7075C50.5895 22.626 50.9048 22.5118 51.22 22.365C51.6679 22.1693 51.9832 22.2346 52.1657 22.5607C52.3648 22.8869 52.232 23.1723 51.7675 23.417C51.137 23.6779 50.7305 23.8329 50.548 23.8818C48.1921 24.6157 45.5873 24.2161 42.7337 22.6831C39.8801 21.15 38.4532 18.1573 38.4532 13.7049C38.4532 11.2422 39.2413 9.00789 40.8174 7.00187C42.3936 4.97954 44.4094 3.36494 46.8649 2.15807C49.3203 0.934888 52.0163 0.233596 54.953 0.0541964C57.9061 -0.141513 60.8013 0.192824 63.6383 1.05721C66.7077 2.19884 69.2793 3.84606 71.3531 5.99886C73.4436 8.15166 74.9617 10.5409 75.9073 13.1667C76.853 15.7925 77.1849 18.5079 76.9028 21.3131C76.6374 24.1183 75.6917 26.7277 74.0658 29.1415C71.5771 32.811 68.5493 35.2492 64.9822 36.4561C61.4151 37.6793 56.8775 36.8394 51.3693 33.9363C49.9757 33.2024 48.5488 32.6887 47.0888 32.3951C45.6454 32.1016 44.1522 32.5745 42.6093 33.814ZM56.8941 28.0895C56.4296 28.3179 56.106 28.2852 55.9235 27.9917C55.741 27.6818 55.8323 27.3964 56.1973 27.1354C58.1052 25.8633 58.4454 24.5423 57.2176 23.1723C56.0065 21.8024 54.8866 20.677 53.8579 19.7964C50.4568 16.9423 49.3452 14.4633 50.5232 12.3594C51.7011 10.2555 53.5925 8.49415 56.1973 7.07526C56.6618 6.84693 56.9853 6.89586 57.1678 7.22204C57.3669 7.53192 57.2591 7.81733 56.8443 8.07827C54.3723 9.59502 54.87 11.7804 58.3375 14.6345C61.4732 17.2114 62.8586 19.6414 62.4935 21.9247C62.1285 24.208 60.2621 26.2629 56.8941 28.0895Z" fill="black"/>
<path d="M92.7249 24.1201C91.9649 24.1201 91.2399 24.0151 90.5499 23.8051C89.8699 23.5951 89.3249 23.3051 88.9149 22.9351C88.7249 22.7751 88.6299 22.5701 88.6299 22.3201C88.6299 22.1401 88.6799 21.9901 88.7799 21.8701C88.8799 21.7401 88.9999 21.6751 89.1399 21.6751C89.2799 21.6751 89.4499 21.7401 89.6499 21.8701C90.5399 22.5301 91.5549 22.8601 92.6949 22.8601C93.4949 22.8601 94.1099 22.7101 94.5399 22.4101C94.9699 22.1101 95.1849 21.6801 95.1849 21.1201C95.1849 20.6801 94.9849 20.3501 94.5849 20.1301C94.1849 19.9101 93.5449 19.7001 92.6649 19.5001C91.8249 19.3201 91.1349 19.1151 90.5949 18.8851C90.0549 18.6551 89.6299 18.3451 89.3199 17.9551C89.0199 17.5551 88.8699 17.0501 88.8699 16.4401C88.8699 15.8301 89.0349 15.2901 89.3649 14.8201C89.7049 14.3401 90.1749 13.9701 90.7749 13.7101C91.3749 13.4401 92.0599 13.3051 92.8299 13.3051C93.5399 13.3051 94.1949 13.4051 94.7949 13.6051C95.3949 13.8051 95.9049 14.1001 96.3249 14.4901C96.5249 14.6601 96.6249 14.8651 96.6249 15.1051C96.6249 15.2751 96.5699 15.4251 96.4599 15.5551C96.3599 15.6851 96.2399 15.7501 96.0999 15.7501C95.9699 15.7501 95.8049 15.6851 95.6049 15.5551C95.1449 15.2051 94.7099 14.9551 94.2999 14.8051C93.8999 14.6451 93.4149 14.5651 92.8449 14.5651C92.0749 14.5651 91.4749 14.7251 91.0449 15.0451C90.6149 15.3551 90.3999 15.7901 90.3999 16.3501C90.3999 16.8301 90.5899 17.1951 90.9699 17.4451C91.3499 17.6851 91.9599 17.9051 92.7999 18.1051C93.6799 18.3051 94.3899 18.5151 94.9299 18.7351C95.4799 18.9451 95.9149 19.2401 96.2349 19.6201C96.5649 19.9901 96.7299 20.4701 96.7299 21.0601C96.7299 21.6601 96.5599 22.1951 96.2199 22.6651C95.8899 23.1251 95.4199 23.4851 94.8099 23.7451C94.2099 23.9951 93.5149 24.1201 92.7249 24.1201Z" fill="black"/>
<path d="M99.2192 24.0751C98.9992 24.0751 98.8142 24.0151 98.6642 23.8951C98.5242 23.7751 98.4542 23.5951 98.4542 23.3551V17.2651C98.4542 17.0251 98.5242 16.8451 98.6642 16.7251C98.8142 16.5951 98.9992 16.5301 99.2192 16.5301C99.4392 16.5301 99.6192 16.5951 99.7592 16.7251C99.8992 16.8451 99.9692 17.0251 99.9692 17.2651V23.3551C99.9692 23.5951 99.8992 23.7751 99.7592 23.8951C99.6192 24.0151 99.4392 24.0751 99.2192 24.0751ZM99.2192 15.0601C98.9292 15.0601 98.6992 14.9801 98.5292 14.8201C98.3592 14.6601 98.2742 14.4501 98.2742 14.1901C98.2742 13.9301 98.3592 13.7251 98.5292 13.5751C98.6992 13.4151 98.9292 13.3351 99.2192 13.3351C99.4992 13.3351 99.7242 13.4151 99.8942 13.5751C100.074 13.7251 100.164 13.9301 100.164 14.1901C100.164 14.4501 100.079 14.6601 99.9092 14.8201C99.7392 14.9801 99.5092 15.0601 99.2192 15.0601Z" fill="black"/>
<path d="M102.852 24.0751C102.632 24.0751 102.447 24.0151 102.297 23.8951C102.157 23.7751 102.087 23.5951 102.087 23.3551V14.0851C102.087 13.8451 102.157 13.6651 102.297 13.5451C102.447 13.4151 102.632 13.3501 102.852 13.3501C103.072 13.3501 103.252 13.4151 103.392 13.5451C103.532 13.6651 103.602 13.8451 103.602 14.0851V23.3551C103.602 23.5951 103.532 23.7751 103.392 23.8951C103.252 24.0151 103.072 24.0751 102.852 24.0751Z" fill="black"/>
<path d="M110.925 16.9801C110.985 16.8301 111.07 16.7201 111.18 16.6501C111.3 16.5801 111.425 16.5451 111.555 16.5451C111.745 16.5451 111.91 16.6101 112.05 16.7401C112.2 16.8701 112.275 17.0251 112.275 17.2051C112.275 17.3051 112.255 17.4001 112.215 17.4901L109.35 23.5651C109.28 23.7251 109.17 23.8501 109.02 23.9401C108.88 24.0201 108.73 24.0601 108.57 24.0601C108.41 24.0601 108.255 24.0201 108.105 23.9401C107.965 23.8501 107.86 23.7251 107.79 23.5651L104.925 17.4901C104.885 17.4101 104.865 17.3151 104.865 17.2051C104.865 17.0251 104.945 16.8701 105.105 16.7401C105.265 16.6101 105.445 16.5451 105.645 16.5451C105.935 16.5451 106.15 16.6851 106.29 16.9651L108.615 22.1251L110.925 16.9801Z" fill="black"/>
<path d="M114.497 24.0751C114.277 24.0751 114.092 24.0151 113.942 23.8951C113.802 23.7751 113.733 23.5951 113.733 23.3551V17.2651C113.733 17.0251 113.802 16.8451 113.942 16.7251C114.092 16.5951 114.277 16.5301 114.497 16.5301C114.717 16.5301 114.898 16.5951 115.038 16.7251C115.178 16.8451 115.247 17.0251 115.247 17.2651V23.3551C115.247 23.5951 115.178 23.7751 115.038 23.8951C114.898 24.0151 114.717 24.0751 114.497 24.0751ZM114.497 15.0601C114.207 15.0601 113.978 14.9801 113.808 14.8201C113.638 14.6601 113.552 14.4501 113.552 14.1901C113.552 13.9301 113.638 13.7251 113.808 13.5751C113.978 13.4151 114.207 13.3351 114.497 13.3351C114.777 13.3351 115.003 13.4151 115.173 13.5751C115.353 13.7251 115.443 13.9301 115.443 14.1901C115.443 14.4501 115.358 14.6601 115.188 14.8201C115.017 14.9801 114.787 15.0601 114.497 15.0601Z" fill="black"/>
<path d="M118.31 24.0001C118.07 24.0001 117.88 23.9351 117.74 23.8051C117.61 23.6651 117.545 23.4801 117.545 23.2501V14.1751C117.545 13.9451 117.61 13.7651 117.74 13.6351C117.88 13.4951 118.07 13.4251 118.31 13.4251H121.25C122.96 13.4251 124.285 13.8851 125.225 14.8051C126.165 15.7251 126.635 17.0251 126.635 18.7051C126.635 20.3851 126.165 21.6901 125.225 22.6201C124.285 23.5401 122.96 24.0001 121.25 24.0001H118.31ZM121.16 22.7101C123.76 22.7101 125.06 21.3751 125.06 18.7051C125.06 16.0451 123.76 14.7151 121.16 14.7151H119.09V22.7101H121.16Z" fill="black"/>
<path d="M134.287 22.1551C134.427 22.1551 134.542 22.2101 134.632 22.3201C134.722 22.4301 134.767 22.5701 134.767 22.7401C134.767 23.0301 134.587 23.2751 134.227 23.4751C133.877 23.6751 133.492 23.8301 133.072 23.9401C132.662 24.0501 132.267 24.1051 131.887 24.1051C130.727 24.1051 129.812 23.7701 129.142 23.1001C128.472 22.4201 128.137 21.4951 128.137 20.3251C128.137 19.5751 128.282 18.9101 128.572 18.3301C128.872 17.7501 129.287 17.3001 129.817 16.9801C130.357 16.6601 130.967 16.5001 131.647 16.5001C132.627 16.5001 133.402 16.8151 133.972 17.4451C134.542 18.0751 134.827 18.9251 134.827 19.9951C134.827 20.3951 134.647 20.5951 134.287 20.5951H129.652C129.752 22.1451 130.497 22.9201 131.887 22.9201C132.257 22.9201 132.577 22.8701 132.847 22.7701C133.117 22.6701 133.402 22.5401 133.702 22.3801C133.732 22.3601 133.812 22.3201 133.942 22.2601C134.082 22.1901 134.197 22.1551 134.287 22.1551ZM131.677 17.6101C131.097 17.6101 130.632 17.7951 130.282 18.1651C129.932 18.5351 129.722 19.0551 129.652 19.7251H133.522C133.492 19.0451 133.317 18.5251 132.997 18.1651C132.687 17.7951 132.247 17.6101 131.677 17.6101Z" fill="black"/>
<path d="M139.046 24.1051C138.026 24.1051 137.191 23.8951 136.541 23.4751C136.361 23.3651 136.231 23.2501 136.151 23.1301C136.081 23.0101 136.046 22.8751 136.046 22.7251C136.046 22.5651 136.091 22.4301 136.181 22.3201C136.271 22.2101 136.386 22.1551 136.526 22.1551C136.656 22.1551 136.861 22.2351 137.141 22.3951C137.441 22.5551 137.731 22.6851 138.011 22.7851C138.301 22.8851 138.661 22.9351 139.091 22.9351C139.571 22.9351 139.946 22.8501 140.216 22.6801C140.486 22.5101 140.621 22.2701 140.621 21.9601C140.621 21.7601 140.566 21.6001 140.456 21.4801C140.356 21.3601 140.176 21.2551 139.916 21.1651C139.656 21.0651 139.271 20.9601 138.761 20.8501C137.881 20.6601 137.246 20.4051 136.856 20.0851C136.476 19.7551 136.286 19.3101 136.286 18.7501C136.286 18.3201 136.411 17.9351 136.661 17.5951C136.911 17.2451 137.256 16.9751 137.696 16.7851C138.136 16.5951 138.636 16.5001 139.196 16.5001C139.596 16.5001 139.986 16.5551 140.366 16.6651C140.746 16.7651 141.081 16.9151 141.371 17.1151C141.701 17.3351 141.866 17.5901 141.866 17.8801C141.866 18.0401 141.816 18.1751 141.716 18.2851C141.626 18.3951 141.516 18.4501 141.386 18.4501C141.296 18.4501 141.206 18.4301 141.116 18.3901C141.026 18.3501 140.906 18.2851 140.756 18.1951C140.486 18.0351 140.231 17.9101 139.991 17.8201C139.761 17.7301 139.471 17.6851 139.121 17.6851C138.701 17.6851 138.361 17.7751 138.101 17.9551C137.851 18.1351 137.726 18.3801 137.726 18.6901C137.726 18.9701 137.841 19.1901 138.071 19.3501C138.311 19.5001 138.756 19.6451 139.406 19.7851C140.076 19.9251 140.601 20.0851 140.981 20.2651C141.361 20.4451 141.631 20.6701 141.791 20.9401C141.961 21.2001 142.046 21.5351 142.046 21.9451C142.046 22.5951 141.771 23.1201 141.221 23.5201C140.681 23.9101 139.956 24.1051 139.046 24.1051Z" fill="black"/>
<path d="M144.498 24.0751C144.278 24.0751 144.093 24.0151 143.943 23.8951C143.803 23.7751 143.732 23.5951 143.732 23.3551V17.2651C143.732 17.0251 143.803 16.8451 143.943 16.7251C144.093 16.5951 144.278 16.5301 144.498 16.5301C144.718 16.5301 144.897 16.5951 145.037 16.7251C145.177 16.8451 145.248 17.0251 145.248 17.2651V23.3551C145.248 23.5951 145.177 23.7751 145.037 23.8951C144.897 24.0151 144.718 24.0751 144.498 24.0751ZM144.498 15.0601C144.208 15.0601 143.977 14.9801 143.807 14.8201C143.637 14.6601 143.553 14.4501 143.553 14.1901C143.553 13.9301 143.637 13.7251 143.807 13.5751C143.977 13.4151 144.208 13.3351 144.498 13.3351C144.778 13.3351 145.003 13.4151 145.173 13.5751C145.353 13.7251 145.443 13.9301 145.443 14.1901C145.443 14.4501 145.358 14.6601 145.188 14.8201C145.017 14.9801 144.788 15.0601 144.498 15.0601Z" fill="black"/>
<path d="M153.425 16.5301C153.655 16.5301 153.835 16.6001 153.965 16.7401C154.105 16.8701 154.175 17.0451 154.175 17.2651V23.4151C154.175 24.5351 153.875 25.3801 153.275 25.9501C152.685 26.5201 151.81 26.8051 150.65 26.8051C149.57 26.8051 148.67 26.6001 147.95 26.1901C147.58 25.9801 147.395 25.7301 147.395 25.4401C147.395 25.2701 147.44 25.1301 147.53 25.0201C147.63 24.9101 147.75 24.8551 147.89 24.8551C148.02 24.8551 148.225 24.9301 148.505 25.0801C148.865 25.2501 149.2 25.3801 149.51 25.4701C149.82 25.5701 150.19 25.6201 150.62 25.6201C152 25.6201 152.69 24.9251 152.69 23.5351V22.3801C152.48 22.8201 152.16 23.1651 151.73 23.4151C151.3 23.6551 150.8 23.7751 150.23 23.7751C149.59 23.7751 149.02 23.6251 148.52 23.3251C148.02 23.0251 147.63 22.6001 147.35 22.0501C147.08 21.5001 146.945 20.8651 146.945 20.1451C146.945 19.4251 147.085 18.7901 147.365 18.2401C147.645 17.6901 148.03 17.2651 148.52 16.9651C149.02 16.6551 149.59 16.5001 150.23 16.5001C150.79 16.5001 151.28 16.6201 151.7 16.8601C152.13 17.1001 152.455 17.4401 152.675 17.8801V17.2501C152.675 17.0301 152.74 16.8551 152.87 16.7251C153.01 16.5951 153.195 16.5301 153.425 16.5301ZM150.59 22.5751C151.24 22.5751 151.75 22.3601 152.12 21.9301C152.49 21.5001 152.675 20.9051 152.675 20.1451C152.675 19.3951 152.49 18.8051 152.12 18.3751C151.76 17.9351 151.25 17.7151 150.59 17.7151C149.93 17.7151 149.41 17.9301 149.03 18.3601C148.66 18.7901 148.475 19.3851 148.475 20.1451C148.475 20.9051 148.665 21.5001 149.045 21.9301C149.425 22.3601 149.94 22.5751 150.59 22.5751Z" fill="black"/>
<path d="M160.231 16.5001C161.981 16.5001 162.856 17.4851 162.856 19.4551V23.3551C162.856 23.5851 162.786 23.7651 162.646 23.8951C162.516 24.0151 162.331 24.0751 162.091 24.0751C161.861 24.0751 161.676 24.0101 161.536 23.8801C161.406 23.7501 161.341 23.5751 161.341 23.3551V19.5301C161.341 18.9101 161.216 18.4551 160.966 18.1651C160.726 17.8751 160.346 17.7301 159.826 17.7301C159.216 17.7301 158.726 17.9201 158.356 18.3001C157.986 18.6801 157.801 19.1901 157.801 19.8301V23.3551C157.801 23.5751 157.731 23.7501 157.591 23.8801C157.461 24.0101 157.281 24.0751 157.051 24.0751C156.821 24.0751 156.636 24.0101 156.496 23.8801C156.356 23.7501 156.286 23.5751 156.286 23.3551V17.2501C156.286 17.0401 156.356 16.8701 156.496 16.7401C156.646 16.6001 156.831 16.5301 157.051 16.5301C157.271 16.5301 157.446 16.5951 157.576 16.7251C157.706 16.8551 157.771 17.0251 157.771 17.2351V17.8501C158.011 17.4101 158.346 17.0751 158.776 16.8451C159.206 16.6151 159.691 16.5001 160.231 16.5001Z" fill="black"/>
</svg>
