<svg width="72" height="72" viewBox="0 0 72 72" fill="none" xmlns="http://www.w3.org/2000/svg">
<path d="M65.8436 10.0004L46.8436 0.50043C46.6787 0.417925 46.4969 0.37498 46.3125 0.375H24.9375C24.7531 0.37498 24.5713 0.417925 24.4064 0.50043L5.40639 10.0004C4.85302 10.2771 0 13.1241 0 27.6875V40.75C0 41.0649 0.125111 41.367 0.347811 41.5897C0.57051 41.8124 0.872555 41.9375 1.1875 41.9375H11.875V70.4375C11.875 70.7524 12.0001 71.0545 12.2228 71.2772C12.4455 71.4999 12.7476 71.625 13.0625 71.625H58.1875C58.5024 71.625 58.8045 71.4999 59.0272 71.2772C59.2499 71.0545 59.375 70.7524 59.375 70.4375V41.9375H70.0625C70.3774 41.9375 70.6795 41.8124 70.9022 41.5897C71.1249 41.367 71.25 41.0649 71.25 40.75V27.6875C71.25 13.1241 66.397 10.2771 65.8436 10.0004ZM26.0408 8.73871C28.0979 11.0684 31.3225 12.25 35.625 12.25C39.9275 12.25 43.1521 11.0684 45.2092 8.73812C46.7615 6.97973 47.2968 4.9448 47.4641 3.46591L49.6954 4.58157C49.3353 6.70289 48.3994 8.68451 46.9897 10.3101C44.4622 13.1733 40.6385 14.625 35.625 14.625C30.6115 14.625 26.7878 13.1733 24.2603 10.3099C22.8506 8.68449 21.9146 6.70296 21.5546 4.58172L23.7859 3.46591C23.9532 4.9448 24.4885 6.98047 26.0408 8.73812V8.73871ZM26.1102 2.75H45.1462C45.082 3.86135 44.7536 5.66561 43.4288 7.16631C41.8422 8.96359 39.2172 9.875 35.625 9.875C32.0468 9.875 29.427 8.97027 27.8386 7.18591C26.5123 5.69589 26.1783 3.87145 26.1102 2.75ZM2.375 27.6875C2.375 17.1317 5.04123 13.4786 6.08594 12.4529C7.44355 13.4273 11.7178 18.1917 11.8707 39.5625H2.375V27.6875ZM57 69.25H14.25V40.75C14.25 28.7574 13.0147 20.0001 10.5782 14.721C9.79866 13.032 8.99531 11.9328 8.28504 11.2164L19.3546 5.68164C19.8581 7.97835 20.933 10.1109 22.4798 11.8817C25.4778 15.2781 29.9005 17 35.625 17C41.3495 17 45.7722 15.2781 48.7702 11.8819C50.317 10.111 51.3919 7.9784 51.8954 5.68164L62.965 11.2164C62.2553 11.9328 61.4509 13.032 60.6717 14.721C58.2353 20.0001 57 28.7574 57 40.75V69.25ZM68.875 39.5625H59.3793C59.5323 18.171 63.8146 13.4181 65.1684 12.4502C65.5194 12.7933 66.0655 13.4423 66.6256 14.5624C67.6516 16.6148 68.875 20.5582 68.875 27.6875V39.5625Z" fill="#5A5A5A"/>
</svg>
