<svg width="246" height="269" viewBox="0 0 246 269" fill="none" xmlns="http://www.w3.org/2000/svg">
<path d="M245.418 95.6119V79.395C245.418 79.2823 245.411 79.1697 245.401 79.0591C245.399 79.0427 245.401 79.0242 245.399 79.0058C245.385 78.8542 245.36 78.7068 245.33 78.5634C245.324 78.5388 245.317 78.5143 245.311 78.4917C245.283 78.3709 245.248 78.2501 245.209 78.1333C245.205 78.119 245.201 78.1046 245.197 78.0903L231.883 40.1225C231.617 39.3647 231.253 38.6663 230.813 38.0252C230.815 37.974 230.822 37.9248 230.822 37.8716V13.9415C230.822 6.25493 224.577 0 216.902 0H28.6384C20.9621 0 14.7192 6.25493 14.7192 13.9415V37.8716C14.7192 37.9228 14.7253 37.974 14.7274 38.0252C14.2857 38.6642 13.9217 39.3647 13.6559 40.1225L0.341936 78.0903C0.337846 78.1046 0.335801 78.119 0.329667 78.1333C0.290815 78.2501 0.258098 78.3689 0.22947 78.4876C0.223335 78.5122 0.215156 78.5388 0.209022 78.5634C0.178349 78.7068 0.155856 78.8542 0.139497 79.0038C0.137452 79.0242 0.139497 79.0468 0.137452 79.0673C0.127228 79.1758 0.121094 79.2844 0.121094 79.3929V95.6119C0.121094 106.16 6.0368 115.347 14.7192 120.029V229.132H10.4025C4.73424 229.132 0.121094 233.751 0.121094 239.43V258.15C0.121094 263.829 4.73424 268.45 10.4025 268.45H235.136C240.806 268.45 245.418 263.829 245.418 258.15V239.43C245.418 233.751 240.806 229.132 235.136 229.132H230.822V120.031C239.502 115.35 245.418 106.16 245.418 95.6119ZM217.749 115.462C206.819 115.462 197.93 106.557 197.93 95.6119V83.3273H237.567V95.6119C237.565 106.557 228.677 115.462 217.749 115.462ZM55.4625 83.3273H69.4001C71.5697 83.3273 73.3262 81.5659 73.3262 79.395C73.3262 77.2219 71.5697 75.4626 69.4001 75.4626H56.3888L63.5253 42.0047H97.7109L95.3655 75.4626H84.0575C81.89 75.4626 80.1314 77.2219 80.1314 79.395C80.1314 81.5659 81.89 83.3273 84.0575 83.3273H95.0996V95.6119V95.6139C95.0976 106.559 86.2066 115.462 75.2811 115.462C64.3535 115.462 55.4625 106.557 55.4625 95.6119C55.4625 95.6098 55.4625 95.6078 55.4625 95.6057V83.3273ZM182.124 42.0047L189.164 75.4626H150.175L147.828 42.0047H182.124ZM139.957 42.0047L142.303 75.4626H103.236L105.584 42.0047H139.957ZM102.952 83.3273H142.589V95.6119C142.589 106.557 133.698 115.462 122.77 115.462C111.843 115.462 102.952 106.557 102.952 95.6119C102.952 95.6098 102.952 95.6078 102.952 95.6057V83.3273ZM150.441 83.3273H190.076V95.6119C190.076 106.557 181.187 115.462 170.26 115.462C159.33 115.462 150.441 106.557 150.441 95.6119V83.3273ZM235.952 75.4626H197.188L190.15 42.0047H223.454C223.912 42.0047 224.323 42.2955 224.474 42.7277L235.952 75.4626ZM28.6384 7.86474H216.902C220.248 7.86474 222.969 10.5908 222.969 13.9415V34.1379H185.303C185.295 34.1379 185.287 34.1379 185.279 34.1379H22.5713V13.9415C22.5713 10.5908 25.293 7.86474 28.6384 7.86474ZM21.0643 42.7277C21.2156 42.2935 21.6266 42.0047 22.0847 42.0047H55.4953L48.3608 75.4626H9.58664L21.0643 42.7277ZM7.97326 95.6119V83.3273H47.6104V95.6119V95.6139C47.6083 106.559 38.7194 115.462 27.7918 115.462C16.8642 115.462 7.97326 106.557 7.97326 95.6119ZM222.969 229.132H192.675C190.506 229.132 188.749 230.894 188.749 233.065C188.749 235.236 190.506 236.997 192.675 236.997H226.889H226.895H226.9H235.136C236.476 236.997 237.565 238.089 237.565 239.43V258.152C237.565 259.493 236.476 260.585 235.136 260.585H10.4025C9.06316 260.585 7.97326 259.493 7.97326 258.152V239.43C7.97326 238.089 9.06316 236.997 10.4025 236.997H18.6391H18.6453H18.6494H178.112C180.279 236.997 182.038 235.236 182.038 233.065C182.038 230.894 180.279 229.132 178.112 229.132H96.3347V139.708C96.3347 134.516 92.1183 130.293 86.9346 130.293H39.8216C34.64 130.293 30.4215 134.516 30.4215 139.708V229.132H22.5693V122.825C24.2624 123.151 26.0067 123.327 27.7918 123.327C37.8626 123.327 46.6963 117.908 51.5365 109.83C56.3766 117.908 65.2082 123.327 75.2811 123.327C85.3519 123.327 94.1836 117.908 99.0237 109.83C103.866 117.908 112.697 123.327 122.768 123.327C132.841 123.327 141.673 117.908 146.513 109.83C151.355 117.908 160.187 123.327 170.258 123.327C180.328 123.327 189.162 117.908 194.002 109.83C198.842 117.908 207.676 123.327 217.747 123.327C219.532 123.327 221.276 123.151 222.967 122.825V229.132H222.969ZM88.4826 229.132H38.2757V139.708C38.2757 138.854 38.9689 138.157 39.8236 138.157H86.9367C87.7894 138.157 88.4846 138.852 88.4846 139.708V229.132H88.4826Z" fill="#7C9FA5"/>
<path d="M205.717 130.292H112.407C107.226 130.292 103.007 134.516 103.007 139.708V198.644C103.007 203.836 107.224 208.059 112.407 208.059H205.717C210.901 208.059 215.117 203.836 215.117 198.644V139.708C215.117 134.516 210.899 130.292 205.717 130.292ZM207.265 198.644C207.265 199.5 206.57 200.194 205.717 200.194H112.407C111.554 200.194 110.859 199.5 110.859 198.644V139.708C110.859 138.854 111.554 138.157 112.407 138.157H205.717C206.57 138.157 207.265 138.852 207.265 139.708V198.644Z" fill="#7C9FA5"/>
<path d="M126.302 175.482C127.248 176.978 128.876 177.726 131.186 177.726C133.496 177.726 135.124 176.978 136.07 175.482C137.016 173.986 137.489 171.544 137.489 168.156C137.489 164.768 137.016 162.337 136.07 160.863C135.124 159.367 133.496 158.619 131.186 158.619C128.876 158.619 127.248 159.367 126.302 160.863C125.378 162.337 124.916 164.768 124.916 168.156C124.916 171.544 125.378 173.986 126.302 175.482ZM140.954 168.189C140.954 175.735 137.698 179.508 131.186 179.508C124.674 179.508 121.418 175.735 121.418 168.189C121.418 160.621 124.674 156.837 131.186 156.837C137.698 156.837 140.954 160.621 140.954 168.189ZM145.986 166.968C145.986 166.088 145.799 165.494 145.425 165.186C145.073 164.856 144.435 164.669 143.511 164.625L143.61 163.569C144.094 163.481 145.546 163.085 147.966 162.381L148.593 162.711L148.89 164.856C149.858 163.228 151.365 162.414 153.411 162.414C157.635 162.414 159.747 165.153 159.747 170.631C159.747 173.535 159.076 175.757 157.734 177.297C156.392 178.815 154.456 179.574 151.926 179.574C151.002 179.574 150.034 179.387 149.022 179.013V184.656C149.616 185.096 150.441 185.415 151.497 185.613L151.365 186.834H143.511L143.643 185.547C144.589 185.393 145.37 185.096 145.986 184.656V166.968ZM149.022 170.664V177.363C149.814 177.825 150.87 178.056 152.19 178.056C153.51 178.056 154.577 177.407 155.391 176.109C156.205 174.811 156.612 173.007 156.612 170.697C156.612 168.365 156.326 166.66 155.754 165.582C155.182 164.482 154.291 163.932 153.081 163.932C150.375 163.932 149.022 166.176 149.022 170.664ZM165.737 170.697V171.225C165.737 173.953 166.1 175.79 166.826 176.736C167.508 177.616 168.619 178.056 170.159 178.056C171.721 178.056 173.052 177.407 174.152 176.109L175.274 177.231C173.932 178.793 172.128 179.574 169.862 179.574C167.2 179.574 165.297 178.837 164.153 177.363C163.031 175.889 162.47 173.777 162.47 171.027C162.47 168.277 163.086 166.154 164.318 164.658C165.55 163.14 167.332 162.381 169.664 162.381C171.996 162.381 173.624 162.997 174.548 164.229C175.472 165.461 175.967 167.298 176.033 169.74L175.307 170.697H165.737ZM169.598 163.833C167.09 163.833 165.803 165.681 165.737 169.377L172.832 169.113C172.832 167.265 172.601 165.923 172.139 165.087C171.677 164.251 170.83 163.833 169.598 163.833ZM180.697 166.968C180.697 166.088 180.51 165.494 180.136 165.186C179.784 164.856 179.146 164.669 178.222 164.625L178.321 163.569C178.805 163.481 180.257 163.085 182.677 162.381L183.304 162.711L183.634 164.922C184.866 163.228 186.384 162.381 188.188 162.381C189.992 162.381 191.378 162.821 192.346 163.701C193.314 164.559 193.798 165.758 193.798 167.298V177.132C194.348 177.55 195.173 177.869 196.273 178.089L196.141 179.31H188.32L188.419 178.089C189.299 177.957 190.08 177.638 190.762 177.132V167.628C190.762 165.274 189.75 164.097 187.726 164.097C186.912 164.097 186.131 164.372 185.383 164.922C184.635 165.472 184.085 166.187 183.733 167.067V177.132C184.327 177.572 185.152 177.891 186.208 178.089L186.076 179.31H178.222L178.354 178.023C179.3 177.869 180.081 177.572 180.697 177.132V166.968Z" fill="#7C9FA5"/>
</svg>
