<svg width="74" height="73" viewBox="0 0 74 73" fill="none" xmlns="http://www.w3.org/2000/svg">
<path d="M38.2807 0.00230995H37.7125C27.565 -0.109423 17.7937 3.8363 10.5691 10.9629C3.77534 17.715 -0.0307182 26.9062 0.000186749 36.4844C0.0233655 56.6421 16.3584 72.9772 36.5155 72.9997C46.1163 73.036 55.3313 69.2252 62.1019 62.4178C69.2278 55.1926 73.164 45.4147 73.0309 35.2672V34.765L38.2807 0.00230995ZM69.1363 34.3074C60.9495 34.658 52.9807 31.6109 47.1171 25.887C40.0726 18.8442 38.938 11.5631 38.9499 4.10791L69.1363 34.3074ZM49.0891 38.1111L36.5155 49.5387L23.9473 38.1122C22.4395 36.8107 21.573 34.9171 21.573 32.9256C21.573 30.934 22.4395 29.0405 23.9473 27.7395C27.3071 24.7875 32.3357 24.7875 35.6954 27.7395L36.5155 28.4865L37.3363 27.7395C39.0301 26.237 41.2416 25.4513 43.5036 25.5482C44.0902 26.2358 44.7071 26.9235 45.3924 27.6087C47.1944 29.4161 49.2151 30.9916 51.407 32.2986C51.6102 34.4964 50.7473 36.6579 49.0855 38.1111H49.0891ZM41.6886 23.2066C39.8176 23.4431 38.0376 24.1515 36.5155 25.2659C32.2007 22.1522 26.3068 22.4316 22.3064 25.9405C20.2922 27.7032 19.1375 30.2499 19.1375 32.9262C19.1375 35.603 20.2922 38.1491 22.3064 39.9125L36.5155 52.8289L50.7253 39.9113C52.5386 38.2834 53.6589 36.0226 53.8544 33.5936C55.698 34.4732 57.623 35.1709 59.6021 35.6767C59.6176 35.9453 59.6419 36.2122 59.6419 36.4844C59.6419 49.257 49.2882 59.6108 36.5155 59.6108C23.7435 59.6108 13.3892 49.257 13.3892 36.4844C13.3892 23.7123 23.7435 13.358 36.5155 13.358C36.8068 13.358 37.0903 13.3865 37.3761 13.402C38.1458 16.9251 39.612 20.2587 41.6886 23.2066V23.2066ZM60.3783 60.6954C54.0648 67.0452 45.4702 70.5999 36.5155 70.5654C17.7022 70.544 2.45594 55.2984 2.43454 36.4844C2.40305 27.5541 5.94998 18.9827 12.2831 12.6852C18.7571 6.29741 27.436 2.63755 36.5292 2.46103C36.4329 5.29121 36.5661 8.12496 36.9256 10.9337C36.7883 10.9337 36.6534 10.9213 36.5155 10.9213C22.3991 10.9213 10.9554 22.365 10.9548 36.4814C10.9548 50.5978 22.3973 62.0422 36.5144 62.0428C50.6308 62.0439 62.0751 50.6014 62.0763 36.4844C62.0763 36.3923 62.0656 36.3031 62.0632 36.211C63.9995 36.5521 65.9614 36.7245 67.9274 36.7269C68.9752 36.7269 69.8626 36.6769 70.5662 36.6151C70.3689 45.6489 66.7239 54.2648 60.3783 60.6978V60.6954Z" fill="#5A5A5A"/>
<path d="M26.0125 9.62028L25.1097 7.35887C6.35162 14.8628 4.88363 36.1985 4.86877 36.4131L7.30313 36.5575C7.31324 36.3631 8.71049 16.54 26.0125 9.62028Z" fill="#5A5A5A"/>
<path d="M4.86877 38.9187H7.30325V41.3532H4.86877V38.9187Z" fill="#5A5A5A"/>
<path d="M36.5155 65.6967V68.131C36.7057 68.131 55.6254 67.929 64.3894 50.4178L62.2106 49.3295C54.1367 65.4679 36.6896 65.6967 36.5155 65.6967V65.6967Z" fill="#5A5A5A"/>
<path d="M31.6467 65.6967H34.0812V68.1311H31.6467V65.6967Z" fill="#5A5A5A"/>
</svg>
