<svg width="93" height="94" viewBox="0 0 93 94" fill="none" xmlns="http://www.w3.org/2000/svg">
<path d="M43.7721 67.1656C43.0192 67.1656 42.4089 67.7759 42.4089 68.5288C42.4089 69.2816 43.0192 69.8919 43.7721 69.8919H49.2283C49.9812 69.8919 50.5915 69.2816 50.5915 68.5288C50.5915 67.7759 49.9812 67.1656 49.2283 67.1656H43.7721Z" fill="#7C9FA5"/>
<path d="M89.43 15.2365H77.661V2.84482C77.661 1.2761 76.3848 0 74.816 0H18.184C16.6152 0 15.3391 1.2761 15.3391 2.84482V15.2365H3.5702C1.60162 15.2365 0 16.8381 0 18.8067V71.591C0 73.5596 1.60162 75.1612 3.5702 75.1612H32.8992V79.7012C32.8992 79.7089 32.8992 79.7163 32.8993 79.7239C32.9742 84.2318 30.9206 88.6988 30.0705 90.3491H25.7413C24.9885 90.3491 24.3781 90.9594 24.3781 91.7123C24.3781 92.4651 24.9885 93.0754 25.7413 93.0754H67.2587C68.0115 93.0754 68.6218 92.4651 68.6218 91.7123C68.6218 90.9594 68.0115 90.3491 67.2587 90.3491H62.9282C62.0774 88.7021 60.0256 84.2482 60.1007 79.7239C60.1007 79.7163 60.1009 79.7089 60.1009 79.7012V75.1612H70.7037C71.4565 75.1612 72.0668 74.5509 72.0668 73.798C72.0668 73.0452 71.4565 72.4349 70.7037 72.4349H3.5702C3.10491 72.4349 2.72631 72.0563 2.72631 71.591V64.6233H90.2737V71.591C90.2737 72.0563 89.8951 72.4349 89.4298 72.4349H77.0649C76.3121 72.4349 75.7017 73.0452 75.7017 73.798C75.7017 74.5509 76.3121 75.1612 77.0649 75.1612H89.4298C91.3984 75.1612 93 73.5596 93 71.591V18.8065C93 16.8379 91.3986 15.2365 89.43 15.2365ZM35.6255 79.69V75.161H57.3747V79.69C57.3073 83.9299 58.8158 87.9976 59.894 90.3487H33.1062C34.1843 87.9976 35.6929 83.9299 35.6255 79.69ZM7.02589 25.1159V61.8968H2.72649V18.8065C2.72649 18.3412 3.10509 17.9626 3.57038 17.9626H15.3393V21.7271H10.3184C8.50283 21.7273 7.02589 23.2473 7.02589 25.1159ZM74.9347 61.8968H18.0655V51.2945C18.0655 50.5417 17.4551 49.9313 16.7023 49.9313C15.9495 49.9313 15.3391 50.5417 15.3391 51.2945V61.8968H9.7522V25.1159C9.7522 24.7507 10.0061 24.4536 10.3182 24.4536H15.3391V44.9331C15.3391 45.6859 15.9495 46.2962 16.7023 46.2962C17.4551 46.2962 18.0655 45.6859 18.0655 44.9331V2.84482C18.0655 2.77939 18.1185 2.72631 18.184 2.72631H74.816C74.8815 2.72631 74.9345 2.77939 74.9345 2.84482V61.8968H74.9347ZM83.2478 61.8968H77.6609V24.4536H82.6818C82.9939 24.4536 83.2478 24.7507 83.2478 25.1159V61.8968ZM90.2737 61.8968H85.9741V25.1159C85.9741 23.2475 84.4972 21.7273 82.6818 21.7273H77.6609V17.9628H89.4298C89.8951 17.9628 90.2737 18.3414 90.2737 18.8067V61.8968Z" fill="#7C9FA5"/>
<path d="M27.1057 35.2636C28.8349 36.3683 30.7786 36.9297 32.8987 36.9326C34.691 36.9326 36.3813 36.539 37.9226 35.7629C41.7347 33.8432 43.8342 30.6354 43.8342 26.7304V14.2813C43.8342 11.7777 41.7972 9.74075 39.2936 9.74075C36.7899 9.74075 34.7528 11.7777 34.7528 14.2813V26.7304C34.7528 26.9465 34.7528 27.1915 33.8382 27.6521C33.5681 27.788 33.2697 27.8513 32.8947 27.8513C32.532 27.8509 32.2546 27.7766 31.9949 27.6106C31.2497 27.1346 31.2497 26.9874 31.2497 26.7435V14.2813C31.2497 11.7777 29.2128 9.74075 26.7091 9.74075C24.2054 9.74075 22.1685 11.7777 22.1685 14.2813V26.7435C22.1685 30.2539 23.8757 33.2001 27.1057 35.2636ZM24.8948 14.2813C24.8948 13.281 25.7087 12.4671 26.7091 12.4671C27.7095 12.4671 28.5234 13.281 28.5234 14.2813V26.7435C28.5234 28.0821 29.1039 28.9989 30.5268 29.908C31.2202 30.3511 32.0156 30.5763 32.8987 30.5776C33.7003 30.5776 34.4086 30.4171 35.0642 30.087C37.2287 28.9969 37.4789 27.6492 37.4789 26.7304V14.2813C37.4789 13.281 38.2928 12.4671 39.2932 12.4671C40.2936 12.4671 41.1075 13.281 41.1075 14.2813V26.7304C41.1075 29.5932 39.582 31.8746 36.6961 33.3279C35.5385 33.911 34.261 34.2063 32.886 34.2063C31.3091 34.2041 29.858 33.7868 28.5732 32.966C26.0979 31.3846 24.8946 29.3493 24.8946 26.7435V14.2813H24.8948Z" fill="#7C9FA5"/>
<path d="M69.9083 29.7744L64.5282 22.6854L68.8998 16.8878C69.6301 15.9195 69.9394 14.7246 69.7709 13.5234C69.6024 12.3224 68.9763 11.2587 68.0081 10.5286C67.0395 9.79815 65.8441 9.48899 64.6433 9.65729C63.4422 9.82578 62.3788 10.4521 61.6487 11.4203L58.8228 15.1681L55.97 11.4089C54.4561 9.41483 51.6022 9.0237 49.608 10.537C47.6138 12.0506 47.2225 14.9045 48.7361 16.8989L53.1411 22.7032L48.0422 29.4656C47.3119 30.434 47.0026 31.6287 47.1711 32.8299C47.3395 34.0311 47.9657 35.0947 48.9339 35.8246C49.728 36.4235 50.6724 36.7401 51.6653 36.7401C53.105 36.7401 54.4274 36.0815 55.2931 34.9331L58.8462 30.221L62.6742 35.2648C63.5404 36.4061 64.8596 37.0606 66.2934 37.0606C67.2913 37.0606 68.2397 36.7412 69.0361 36.1367C70.0023 35.4035 70.6252 34.3379 70.7898 33.1363C70.9547 31.9345 70.6417 30.7406 69.9083 29.7744ZM67.3883 33.9647C67.0701 34.2063 66.6915 34.3341 66.2938 34.3341C65.72 34.3341 65.1924 34.0725 64.8461 33.6163L59.9289 27.1371C59.6712 26.7974 59.2694 26.5981 58.8431 26.5981C58.8424 26.5981 58.8417 26.5981 58.841 26.5981C58.4138 26.5988 58.0118 26.7994 57.7546 27.1404L53.1166 33.2913C52.7707 33.7503 52.2418 34.0135 51.6657 34.0135C51.27 34.0135 50.8932 33.887 50.5757 33.6474C50.1887 33.3557 49.9386 32.9307 49.8714 32.4509C49.8041 31.9709 49.9277 31.4934 50.2194 31.1067L55.9393 23.5211C56.3066 23.034 56.3055 22.3623 55.9367 21.8763L50.9081 15.251C50.3034 14.454 50.4597 13.3135 51.2565 12.7088C52.0535 12.1039 53.194 12.2604 53.7987 13.0572L57.7408 18.2517C57.9985 18.5914 58.4002 18.7908 58.8266 18.7908H58.8288C59.2559 18.7903 59.6579 18.5894 59.9151 18.2485L63.8261 13.0617C64.1178 12.6748 64.5428 12.4247 65.0226 12.3573C65.5026 12.2898 65.9799 12.4136 66.367 12.7057C66.754 12.9974 67.0041 13.4223 67.0713 13.9022C67.1386 14.3822 67.015 14.8596 66.7231 15.2464L61.7307 21.8675C61.3633 22.3546 61.3644 23.0264 61.7332 23.5124L67.7367 31.4229C68.3414 32.2197 68.1851 33.36 67.3883 33.9647Z" fill="#7C9FA5"/>
<path d="M69.469 41.2175H23.5317C22.7788 41.2175 22.1685 41.8278 22.1685 42.5806C22.1685 43.3335 22.7788 43.9438 23.5317 43.9438H69.469C70.2218 43.9438 70.8321 43.3335 70.8321 42.5806C70.8321 41.8278 70.222 41.2175 69.469 41.2175Z" fill="#7C9FA5"/>
<path d="M69.469 46.7506H23.5317C22.7788 46.7506 22.1685 47.361 22.1685 48.1138C22.1685 48.8666 22.7788 49.477 23.5317 49.477H69.469C70.2218 49.477 70.8321 48.8666 70.8321 48.1138C70.8321 47.361 70.222 46.7506 69.469 46.7506Z" fill="#7C9FA5"/>
<path d="M69.469 52.2838H23.5317C22.7788 52.2838 22.1685 52.8941 22.1685 53.6469C22.1685 54.3998 22.7788 55.0101 23.5317 55.0101H69.469C70.2218 55.0101 70.8321 54.3998 70.8321 53.6469C70.8321 52.8941 70.222 52.2838 69.469 52.2838Z" fill="#7C9FA5"/>
</svg>
