<svg width="109" height="96" viewBox="0 0 109 96" fill="none" xmlns="http://www.w3.org/2000/svg">
<path fill-rule="evenodd" clip-rule="evenodd" d="M63.8917 0.0108732C68.9309 -0.275637 72.552 5.16357 74.0708 8.8156C74.9362 10.8924 75.6601 14.2786 73.5734 15.3055C71.9428 16.1096 69.9915 16.2346 67.6833 16.5368C62.1725 17.2531 58.6688 15.9377 56.6752 12.6036C56.1032 11.6485 55.5049 9.96472 55.8601 8.29276C56.5549 4.99397 58.5939 2.36575 61.1444 0.879656C61.6196 0.600714 62.8117 0.0725486 63.8917 0.0108732Z" fill="black"/>
<path d="M48.4505 19.8758C51.4027 19.8805 54.4884 20.3588 57.3638 21.1227C60.51 21.9615 63.4678 23.0703 65.9471 24.0585C70.6967 25.9536 74.1782 27.3368 74.1782 27.3368C74.1782 27.3368 76.5767 25.68 77.491 25.0638C79.7047 23.7011 81.7651 22.3282 84.4939 21.7339C85.3765 21.5424 87.0205 21.5346 87.8431 21.6806C91.074 22.2556 93.0351 23.6621 93.3085 26.403C93.6791 30.0867 88.9752 33.9857 87.8689 35.0247C86.8792 35.952 82.136 40.4322 76.3028 40.9001C73.4642 41.1297 70.7805 40.195 68.8497 39.384C68.2051 39.1123 66.5266 38.2761 66.5266 38.2761C66.5266 38.2761 63.9341 40.7439 61.5547 43.2362C59.1637 45.7388 53.2411 52.9848 53.2411 52.9991C59.7777 52.5293 67.285 54.615 72.0455 56.4529C83.2412 60.7769 94.0439 68.3857 101.343 78.676C103.849 82.2136 106.239 86.1168 108.049 90.3052C108.545 91.4557 109.523 93.893 108.652 94.9331C107.749 96.0087 105.668 94.7321 104.495 94.161C102.364 93.1265 97.8212 89.6553 94.5384 87.0229C93.0376 85.8172 90.7193 83.7345 90.3153 81.8952C90.0588 80.7174 90.7729 79.1784 91.0193 77.9715C91.4155 76.0416 90.2898 74.5507 89.511 73.5805C87.683 71.301 84.5486 69.8774 81.6 68.7219C75.7469 66.4211 71.6438 65.6863 61.7212 64.4304C51.8 63.175 45.1591 63.9656 44.424 63.9944C43.6594 64.9025 42.6765 66.0712 41.9114 66.9792C39.8005 69.167 31.9467 76.9216 29.6755 78.6426C25.6131 81.7202 21.0743 84.705 16.2681 87.0229C7.01666 91.4823 1.11588 90.7778 0.444416 90.0388C-0.225088 89.301 -0.250882 87.2004 1.15794 84.3142C2.57965 81.4043 5.96026 77.6303 7.51907 76.029C9.07508 74.424 11.9676 71.77 15.8985 68.7883C21.3297 64.6653 29.5903 60.5154 33.6982 58.4989C39.429 55.6823 45.1647 54.3299 46.6044 53.9399C54.4831 43.1125 62.8278 36.2413 62.8278 36.2413C62.8278 36.2413 59.4805 34.1012 58.0675 33.1576C54.9922 31.1043 51.9621 28.9056 48.4141 27.3581C46.1802 26.3853 42.4898 25.0103 39.2956 25.8188C35.3646 26.8117 30.1894 29.7626 28.1122 32.3104C27.4209 33.1567 26.8352 34.7045 26.6039 36.0218C26.4191 37.0616 26.7051 38.5774 26.4244 39.3237C25.9316 40.6324 23.7972 41.7907 22.1349 42.5196C19.876 43.5081 17.5558 44.5288 14.982 45.1809C14.1143 45.3993 12.5847 45.812 12.1117 45.1703C11.484 44.318 12.4613 43.0402 12.7935 42.4529C14.144 40.0562 15.7656 38.0456 17.4744 36.0067C22.6825 29.7946 28.3519 25.1647 36.3131 21.9955C38.3112 21.2004 42.1474 19.8668 48.4505 19.8758ZM87.3505 25.2665C85.9941 25.394 84.5054 25.6475 83.2805 26.1255C81.4716 26.8286 79.8623 27.6811 78.2037 28.6827C81.8624 29.794 86.0706 30.4254 89.377 28.4237C90.1813 27.9354 90.9063 27.2768 90.9411 26.4947C90.982 25.613 88.7049 25.1401 87.3505 25.2665ZM37.8436 64.7996C37.8436 64.7996 36.0111 65.1349 35.0268 65.335C34.0441 65.5369 31.7743 66.1859 30.2531 66.5814C26.0903 67.661 15.1755 71.897 10.2669 76.7991C8.66519 78.3982 7.40777 80.3056 6.475 82.5778C6.21903 83.2013 5.6998 84.647 6.22156 85.5158C6.66593 86.2548 7.98503 86.4176 9.11602 86.1698C11.4391 85.661 13.5331 84.7045 15.397 83.6779C22.4013 79.8142 29.1283 74.2042 33.3073 69.6932C34.6606 68.2315 36.3933 66.4289 36.8831 65.8839C37.3737 65.335 37.8436 64.7996 37.8436 64.7996Z" fill="black"/>
</svg>
