<svg width="26" height="25" viewBox="0 0 26 25" fill="none" xmlns="http://www.w3.org/2000/svg">
<path d="M17.4128 24.1949C21.6249 24.1949 25.0567 20.7631 25.0567 16.551V8.3382C25.0567 4.12603 21.6249 0.694238 17.4128 0.694238H8.0989C3.88675 0.694238 0.45498 4.12603 0.45498 8.3382V16.551C0.45498 20.7631 3.88675 24.1949 8.0989 24.1949H17.4128ZM2.4067 16.551V8.3382C2.4067 5.20935 4.95477 2.66126 8.0836 2.66126H17.3975C20.5263 2.66126 23.0744 5.20935 23.0744 8.3382V16.551C23.0744 19.6798 20.5263 22.2279 17.3975 22.2279H8.0836C4.9698 22.2279 2.4067 19.6796 2.4067 16.551Z" fill="white" stroke="white" stroke-width="0.3"/>
<path d="M17.7799 5.96742L17.78 5.97042C17.7968 6.81287 18.4715 7.50916 19.3217 7.50916C20.1692 7.50916 20.8634 6.81495 20.8634 5.96742C20.8634 5.11989 20.1692 4.42568 19.3217 4.42568C18.4741 4.42568 17.7799 5.11989 17.7799 5.96742Z" fill="white" stroke="white" stroke-width="0.3"/>
<path d="M19.5812 12.4368C19.5812 8.66816 16.5165 5.60342 12.7479 5.60342C8.9792 5.60342 5.91445 8.66816 5.91445 12.4368C5.91445 16.2055 8.9792 19.2702 12.7479 19.2702C16.5165 19.2702 19.5812 16.2055 19.5812 12.4368ZM7.89677 12.4368C7.89677 9.75147 10.0778 7.57044 12.7631 7.57044C15.4485 7.57044 17.6295 9.75147 17.6295 12.4368C17.6295 15.1221 15.4485 17.3032 12.7631 17.3032C10.0778 17.3032 7.89677 15.1221 7.89677 12.4368Z" fill="white" stroke="white" stroke-width="0.3"/>
</svg>
