<svg width="26" height="21" viewBox="0 0 26 21" fill="none" xmlns="http://www.w3.org/2000/svg">
<path d="M7.87635 20.4394C17.3127 20.4394 22.482 12.6243 22.482 5.83381C22.482 5.6044 22.482 5.39029 22.4667 5.17618C23.4761 4.45737 24.3326 3.53974 25.0208 2.51506C24.1032 2.92799 23.1091 3.20328 22.0691 3.32563C23.1244 2.68329 23.935 1.68919 24.3326 0.480978C23.3385 1.06214 22.2373 1.49037 21.075 1.71978C20.1421 0.725679 18.8115 0.0986328 17.328 0.0986328C14.4986 0.0986328 12.1892 2.3927 12.1892 5.23735C12.1892 5.63499 12.2351 6.03263 12.3269 6.41498C8.05989 6.20086 4.28229 4.15149 1.7435 1.04685C1.29998 1.81154 1.05527 2.68329 1.05527 3.6315C1.05527 5.40558 1.95762 6.98085 3.33407 7.89848C2.49291 7.86789 1.69762 7.63848 1.00939 7.25614C1.00939 7.27143 1.00939 7.30202 1.00939 7.31731C1.00939 9.8102 2.78349 11.8749 5.12346 12.349C4.69523 12.4713 4.23641 12.5325 3.7623 12.5325C3.42583 12.5325 3.10465 12.5019 2.79878 12.4407C3.45641 14.4748 5.35287 15.9583 7.60107 16.0042C5.84227 17.3806 3.62465 18.2065 1.22351 18.2065C0.81057 18.2065 0.397642 18.1759 0 18.13C2.27879 19.5982 4.97051 20.4394 7.87635 20.4394Z" fill="white"/>
</svg>
